<mxfile host="app.diagrams.net" agent="Mozilla/5.0 (Macintosh; Intel Mac OS X 10_15_7) AppleWebKit/537.36 (KHTML, like Gecko) Chrome/138.0.0.0 Safari/537.36" version="28.1.0">
  <diagram name="Page-1" id="5_EasOju3UU8FTQnb8FH">
    <mxGraphModel dx="1741" dy="1009" grid="1" gridSize="10" guides="1" tooltips="1" connect="1" arrows="1" fold="1" page="1" pageScale="1" pageWidth="850" pageHeight="1100" math="0" shadow="0">
      <root>
        <mxCell id="0" />
        <mxCell id="1" parent="0" />
        <mxCell id="trG8RAwOMToN1kAprwP--92" value="" style="rounded=0;whiteSpace=wrap;html=1;" vertex="1" parent="1">
          <mxGeometry x="70" y="20" width="1450" height="690" as="geometry" />
        </mxCell>
        <mxCell id="trG8RAwOMToN1kAprwP--91" value="" style="rounded=0;whiteSpace=wrap;html=1;fillColor=#fff2cc;strokeColor=#d6b656;" vertex="1" parent="1">
          <mxGeometry x="200" y="80" width="1200" height="560" as="geometry" />
        </mxCell>
        <mxCell id="trG8RAwOMToN1kAprwP--13" value="" style="group" vertex="1" connectable="0" parent="1">
          <mxGeometry x="400" y="170" width="320" height="90" as="geometry" />
        </mxCell>
        <mxCell id="trG8RAwOMToN1kAprwP--2" value="" style="rounded=0;whiteSpace=wrap;html=1;fillColor=#e1d5e7;strokeColor=#9673a6;" vertex="1" parent="trG8RAwOMToN1kAprwP--13">
          <mxGeometry x="50" y="10" width="220" height="80" as="geometry" />
        </mxCell>
        <mxCell id="trG8RAwOMToN1kAprwP--3" value="&lt;span style=&quot;color: rgb(0, 0, 0); font-family: Helvetica; font-size: 20px; font-style: normal; font-variant-ligatures: normal; font-variant-caps: normal; font-weight: 400; letter-spacing: normal; orphans: 2; text-indent: 0px; text-transform: none; widows: 2; word-spacing: 0px; -webkit-text-stroke-width: 0px; white-space: normal; text-decoration-thickness: initial; text-decoration-style: initial; text-decoration-color: initial; float: none; display: inline !important;&quot;&gt;LFSR: U1&lt;/span&gt;" style="text;whiteSpace=wrap;html=1;align=center;" vertex="1" parent="trG8RAwOMToN1kAprwP--13">
          <mxGeometry x="120" y="30" width="100" height="50" as="geometry" />
        </mxCell>
        <mxCell id="trG8RAwOMToN1kAprwP--4" value="" style="triangle;whiteSpace=wrap;html=1;fillColor=#e1d5e7;strokeColor=#9673a6;" vertex="1" parent="trG8RAwOMToN1kAprwP--13">
          <mxGeometry x="50" y="50" width="30" height="30" as="geometry" />
        </mxCell>
        <mxCell id="trG8RAwOMToN1kAprwP--5" value="" style="endArrow=none;html=1;rounded=1;entryX=0;entryY=0.25;entryDx=0;entryDy=0;curved=0;" edge="1" parent="trG8RAwOMToN1kAprwP--13" target="trG8RAwOMToN1kAprwP--2">
          <mxGeometry width="50" height="50" relative="1" as="geometry">
            <mxPoint x="10" y="30" as="sourcePoint" />
            <mxPoint x="20" y="20" as="targetPoint" />
          </mxGeometry>
        </mxCell>
        <mxCell id="trG8RAwOMToN1kAprwP--6" value="Seed_p" style="text;html=1;align=center;verticalAlign=middle;whiteSpace=wrap;rounded=0;" vertex="1" parent="trG8RAwOMToN1kAprwP--13">
          <mxGeometry x="40" y="16" width="80" height="30" as="geometry" />
        </mxCell>
        <mxCell id="trG8RAwOMToN1kAprwP--7" value="Q" style="text;html=1;align=center;verticalAlign=middle;whiteSpace=wrap;rounded=0;" vertex="1" parent="trG8RAwOMToN1kAprwP--13">
          <mxGeometry x="230" y="16" width="60" height="30" as="geometry" />
        </mxCell>
        <mxCell id="trG8RAwOMToN1kAprwP--8" value="" style="endArrow=none;html=1;rounded=1;entryX=0;entryY=0.25;entryDx=0;entryDy=0;curved=0;" edge="1" parent="trG8RAwOMToN1kAprwP--13">
          <mxGeometry width="50" height="50" relative="1" as="geometry">
            <mxPoint x="270" y="30.840000000000003" as="sourcePoint" />
            <mxPoint x="310" y="30.840000000000003" as="targetPoint" />
          </mxGeometry>
        </mxCell>
        <mxCell id="trG8RAwOMToN1kAprwP--9" value="" style="endArrow=none;html=1;rounded=0;" edge="1" parent="trG8RAwOMToN1kAprwP--13">
          <mxGeometry width="50" height="50" relative="1" as="geometry">
            <mxPoint x="20" y="36" as="sourcePoint" />
            <mxPoint x="30" y="26" as="targetPoint" />
          </mxGeometry>
        </mxCell>
        <mxCell id="trG8RAwOMToN1kAprwP--10" value="16" style="text;html=1;align=center;verticalAlign=middle;whiteSpace=wrap;rounded=0;" vertex="1" parent="trG8RAwOMToN1kAprwP--13">
          <mxGeometry width="60" height="30" as="geometry" />
        </mxCell>
        <mxCell id="trG8RAwOMToN1kAprwP--11" value="" style="endArrow=none;html=1;rounded=0;" edge="1" parent="trG8RAwOMToN1kAprwP--13">
          <mxGeometry width="50" height="50" relative="1" as="geometry">
            <mxPoint x="280" y="36" as="sourcePoint" />
            <mxPoint x="290" y="26" as="targetPoint" />
          </mxGeometry>
        </mxCell>
        <mxCell id="trG8RAwOMToN1kAprwP--12" value="16" style="text;html=1;align=center;verticalAlign=middle;whiteSpace=wrap;rounded=0;" vertex="1" parent="trG8RAwOMToN1kAprwP--13">
          <mxGeometry x="260" width="60" height="30" as="geometry" />
        </mxCell>
        <mxCell id="trG8RAwOMToN1kAprwP--14" value="" style="group" vertex="1" connectable="0" parent="1">
          <mxGeometry x="400" y="420" width="320" height="90" as="geometry" />
        </mxCell>
        <mxCell id="trG8RAwOMToN1kAprwP--15" value="" style="rounded=0;whiteSpace=wrap;html=1;fillColor=#e1d5e7;strokeColor=#9673a6;" vertex="1" parent="trG8RAwOMToN1kAprwP--14">
          <mxGeometry x="50" y="10" width="220" height="80" as="geometry" />
        </mxCell>
        <mxCell id="trG8RAwOMToN1kAprwP--16" value="&lt;span style=&quot;color: rgb(0, 0, 0); font-family: Helvetica; font-size: 20px; font-style: normal; font-variant-ligatures: normal; font-variant-caps: normal; font-weight: 400; letter-spacing: normal; orphans: 2; text-indent: 0px; text-transform: none; widows: 2; word-spacing: 0px; -webkit-text-stroke-width: 0px; white-space: normal; text-decoration-thickness: initial; text-decoration-style: initial; text-decoration-color: initial; float: none; display: inline !important;&quot;&gt;LFSR: U2&lt;/span&gt;" style="text;whiteSpace=wrap;html=1;align=center;" vertex="1" parent="trG8RAwOMToN1kAprwP--14">
          <mxGeometry x="120" y="30" width="100" height="50" as="geometry" />
        </mxCell>
        <mxCell id="trG8RAwOMToN1kAprwP--17" value="" style="triangle;whiteSpace=wrap;html=1;fillColor=#e1d5e7;strokeColor=#9673a6;" vertex="1" parent="trG8RAwOMToN1kAprwP--14">
          <mxGeometry x="50" y="50" width="30" height="30" as="geometry" />
        </mxCell>
        <mxCell id="trG8RAwOMToN1kAprwP--18" value="" style="endArrow=none;html=1;rounded=1;entryX=0;entryY=0.25;entryDx=0;entryDy=0;curved=0;" edge="1" parent="trG8RAwOMToN1kAprwP--14" target="trG8RAwOMToN1kAprwP--15">
          <mxGeometry width="50" height="50" relative="1" as="geometry">
            <mxPoint x="10" y="30" as="sourcePoint" />
            <mxPoint x="20" y="20" as="targetPoint" />
          </mxGeometry>
        </mxCell>
        <mxCell id="trG8RAwOMToN1kAprwP--19" value="Seed_p" style="text;html=1;align=center;verticalAlign=middle;whiteSpace=wrap;rounded=0;" vertex="1" parent="trG8RAwOMToN1kAprwP--14">
          <mxGeometry x="40" y="16" width="80" height="30" as="geometry" />
        </mxCell>
        <mxCell id="trG8RAwOMToN1kAprwP--20" value="Q" style="text;html=1;align=center;verticalAlign=middle;whiteSpace=wrap;rounded=0;" vertex="1" parent="trG8RAwOMToN1kAprwP--14">
          <mxGeometry x="230" y="16" width="60" height="30" as="geometry" />
        </mxCell>
        <mxCell id="trG8RAwOMToN1kAprwP--21" value="" style="endArrow=none;html=1;rounded=1;entryX=0;entryY=0.25;entryDx=0;entryDy=0;curved=0;" edge="1" parent="trG8RAwOMToN1kAprwP--14">
          <mxGeometry width="50" height="50" relative="1" as="geometry">
            <mxPoint x="270" y="30.840000000000003" as="sourcePoint" />
            <mxPoint x="310" y="30.840000000000003" as="targetPoint" />
          </mxGeometry>
        </mxCell>
        <mxCell id="trG8RAwOMToN1kAprwP--22" value="" style="endArrow=none;html=1;rounded=0;" edge="1" parent="trG8RAwOMToN1kAprwP--14">
          <mxGeometry width="50" height="50" relative="1" as="geometry">
            <mxPoint x="20" y="36" as="sourcePoint" />
            <mxPoint x="30" y="26" as="targetPoint" />
          </mxGeometry>
        </mxCell>
        <mxCell id="trG8RAwOMToN1kAprwP--23" value="16" style="text;html=1;align=center;verticalAlign=middle;whiteSpace=wrap;rounded=0;" vertex="1" parent="trG8RAwOMToN1kAprwP--14">
          <mxGeometry width="60" height="30" as="geometry" />
        </mxCell>
        <mxCell id="trG8RAwOMToN1kAprwP--24" value="" style="endArrow=none;html=1;rounded=0;" edge="1" parent="trG8RAwOMToN1kAprwP--14">
          <mxGeometry width="50" height="50" relative="1" as="geometry">
            <mxPoint x="280" y="36" as="sourcePoint" />
            <mxPoint x="290" y="26" as="targetPoint" />
          </mxGeometry>
        </mxCell>
        <mxCell id="trG8RAwOMToN1kAprwP--25" value="16" style="text;html=1;align=center;verticalAlign=middle;whiteSpace=wrap;rounded=0;" vertex="1" parent="trG8RAwOMToN1kAprwP--14">
          <mxGeometry x="260" width="60" height="30" as="geometry" />
        </mxCell>
        <mxCell id="trG8RAwOMToN1kAprwP--59" value="" style="endArrow=none;html=1;rounded=0;" edge="1" parent="trG8RAwOMToN1kAprwP--14">
          <mxGeometry width="50" height="50" relative="1" as="geometry">
            <mxPoint x="310" y="31" as="sourcePoint" />
            <mxPoint x="380" y="31" as="targetPoint" />
          </mxGeometry>
        </mxCell>
        <mxCell id="trG8RAwOMToN1kAprwP--83" value="" style="edgeStyle=segmentEdgeStyle;endArrow=classic;html=1;curved=0;rounded=0;endSize=8;startSize=8;" edge="1" parent="trG8RAwOMToN1kAprwP--14">
          <mxGeometry width="50" height="50" relative="1" as="geometry">
            <mxPoint x="-50" as="sourcePoint" />
            <mxPoint x="50" y="64.98000000000008" as="targetPoint" />
            <Array as="points">
              <mxPoint x="-50" y="35" />
              <mxPoint x="-50" y="65" />
            </Array>
          </mxGeometry>
        </mxCell>
        <mxCell id="trG8RAwOMToN1kAprwP--26" value="" style="triangle;whiteSpace=wrap;html=1;" vertex="1" parent="1">
          <mxGeometry x="370" y="180" width="40" height="40" as="geometry" />
        </mxCell>
        <mxCell id="trG8RAwOMToN1kAprwP--27" value="" style="triangle;whiteSpace=wrap;html=1;" vertex="1" parent="1">
          <mxGeometry x="370" y="430" width="40" height="40" as="geometry" />
        </mxCell>
        <mxCell id="trG8RAwOMToN1kAprwP--32" value="" style="rounded=0;whiteSpace=wrap;html=1;" vertex="1" parent="1">
          <mxGeometry x="820" y="150" width="150" height="204.44" as="geometry" />
        </mxCell>
        <mxCell id="trG8RAwOMToN1kAprwP--33" value="&lt;span style=&quot;color: rgb(0, 0, 0); font-family: Helvetica; font-size: 20px; font-style: normal; font-variant-ligatures: normal; font-variant-caps: normal; font-weight: 400; letter-spacing: normal; orphans: 2; text-indent: 0px; text-transform: none; widows: 2; word-spacing: 0px; -webkit-text-stroke-width: 0px; white-space: normal; text-decoration-thickness: initial; text-decoration-style: initial; text-decoration-color: initial; float: none; display: inline !important;&quot;&gt;ROM&lt;/span&gt;" style="text;whiteSpace=wrap;html=1;align=center;" vertex="1" parent="1">
          <mxGeometry x="845" y="149.99666666666667" width="100" height="127.77777777777777" as="geometry" />
        </mxCell>
        <mxCell id="trG8RAwOMToN1kAprwP--34" value="" style="triangle;whiteSpace=wrap;html=1;" vertex="1" parent="1">
          <mxGeometry x="820" y="304.44" width="30" height="32.22" as="geometry" />
        </mxCell>
        <mxCell id="trG8RAwOMToN1kAprwP--35" value="" style="endArrow=none;html=1;rounded=1;entryX=0;entryY=0.25;entryDx=0;entryDy=0;curved=0;" edge="1" parent="1" target="trG8RAwOMToN1kAprwP--32">
          <mxGeometry width="50" height="50" relative="1" as="geometry">
            <mxPoint x="780" y="201.10666666666665" as="sourcePoint" />
            <mxPoint x="790" y="175.5511111111111" as="targetPoint" />
          </mxGeometry>
        </mxCell>
        <mxCell id="trG8RAwOMToN1kAprwP--36" value="addr" style="text;html=1;align=center;verticalAlign=middle;whiteSpace=wrap;rounded=0;" vertex="1" parent="1">
          <mxGeometry x="800" y="161.6688888888889" width="80" height="76.66666666666666" as="geometry" />
        </mxCell>
        <mxCell id="trG8RAwOMToN1kAprwP--37" value="d_out" style="text;html=1;align=center;verticalAlign=middle;whiteSpace=wrap;rounded=0;" vertex="1" parent="1">
          <mxGeometry x="920" y="184.11" width="50" height="39.11" as="geometry" />
        </mxCell>
        <mxCell id="trG8RAwOMToN1kAprwP--39" value="" style="endArrow=none;html=1;rounded=0;" edge="1" parent="1">
          <mxGeometry width="50" height="50" relative="1" as="geometry">
            <mxPoint x="790" y="216.44" as="sourcePoint" />
            <mxPoint x="800" y="190.88444444444445" as="targetPoint" />
          </mxGeometry>
        </mxCell>
        <mxCell id="trG8RAwOMToN1kAprwP--40" value="16" style="text;html=1;align=center;verticalAlign=middle;whiteSpace=wrap;rounded=0;" vertex="1" parent="1">
          <mxGeometry x="780" y="165.32999999999998" width="30" height="30" as="geometry" />
        </mxCell>
        <mxCell id="trG8RAwOMToN1kAprwP--41" value="" style="endArrow=none;html=1;rounded=0;" edge="1" parent="1">
          <mxGeometry width="50" height="50" relative="1" as="geometry">
            <mxPoint x="980" y="216.44" as="sourcePoint" />
            <mxPoint x="990" y="190.88444444444445" as="targetPoint" />
          </mxGeometry>
        </mxCell>
        <mxCell id="trG8RAwOMToN1kAprwP--42" value="32" style="text;html=1;align=center;verticalAlign=middle;whiteSpace=wrap;rounded=0;" vertex="1" parent="1">
          <mxGeometry x="970" y="165.33" width="40" height="30" as="geometry" />
        </mxCell>
        <mxCell id="trG8RAwOMToN1kAprwP--46" value="" style="rounded=0;whiteSpace=wrap;html=1;" vertex="1" parent="1">
          <mxGeometry x="820" y="400.00333333333333" width="150" height="204.44" as="geometry" />
        </mxCell>
        <mxCell id="trG8RAwOMToN1kAprwP--47" value="&lt;span style=&quot;color: rgb(0, 0, 0); font-family: Helvetica; font-size: 20px; font-style: normal; font-variant-ligatures: normal; font-variant-caps: normal; font-weight: 400; letter-spacing: normal; orphans: 2; text-indent: 0px; text-transform: none; widows: 2; word-spacing: 0px; -webkit-text-stroke-width: 0px; white-space: normal; text-decoration-thickness: initial; text-decoration-style: initial; text-decoration-color: initial; float: none; display: inline !important;&quot;&gt;ROM&lt;/span&gt;" style="text;whiteSpace=wrap;html=1;align=center;" vertex="1" parent="1">
          <mxGeometry x="845" y="400" width="100" height="127.77777777777777" as="geometry" />
        </mxCell>
        <mxCell id="trG8RAwOMToN1kAprwP--48" value="" style="triangle;whiteSpace=wrap;html=1;" vertex="1" parent="1">
          <mxGeometry x="820" y="554.4433333333334" width="30" height="32.22" as="geometry" />
        </mxCell>
        <mxCell id="trG8RAwOMToN1kAprwP--49" value="" style="endArrow=none;html=1;rounded=1;entryX=0;entryY=0.25;entryDx=0;entryDy=0;curved=0;" edge="1" parent="1" target="trG8RAwOMToN1kAprwP--46">
          <mxGeometry width="50" height="50" relative="1" as="geometry">
            <mxPoint x="780" y="451.11" as="sourcePoint" />
            <mxPoint x="790" y="425.55444444444447" as="targetPoint" />
          </mxGeometry>
        </mxCell>
        <mxCell id="trG8RAwOMToN1kAprwP--50" value="addr" style="text;html=1;align=center;verticalAlign=middle;whiteSpace=wrap;rounded=0;" vertex="1" parent="1">
          <mxGeometry x="800" y="410.00222222222226" width="80" height="76.66666666666666" as="geometry" />
        </mxCell>
        <mxCell id="trG8RAwOMToN1kAprwP--51" value="d_out" style="text;html=1;align=center;verticalAlign=middle;whiteSpace=wrap;rounded=0;" vertex="1" parent="1">
          <mxGeometry x="920" y="434.11333333333334" width="50" height="39.11" as="geometry" />
        </mxCell>
        <mxCell id="trG8RAwOMToN1kAprwP--53" value="" style="endArrow=none;html=1;rounded=0;" edge="1" parent="1">
          <mxGeometry width="50" height="50" relative="1" as="geometry">
            <mxPoint x="790" y="466.4433333333333" as="sourcePoint" />
            <mxPoint x="800" y="440.8877777777778" as="targetPoint" />
          </mxGeometry>
        </mxCell>
        <mxCell id="trG8RAwOMToN1kAprwP--54" value="16" style="text;html=1;align=center;verticalAlign=middle;whiteSpace=wrap;rounded=0;" vertex="1" parent="1">
          <mxGeometry x="780" y="415.3333333333333" width="30" height="30" as="geometry" />
        </mxCell>
        <mxCell id="trG8RAwOMToN1kAprwP--55" value="" style="endArrow=none;html=1;rounded=0;" edge="1" parent="1">
          <mxGeometry width="50" height="50" relative="1" as="geometry">
            <mxPoint x="980" y="466.4433333333333" as="sourcePoint" />
            <mxPoint x="990" y="440.8877777777778" as="targetPoint" />
          </mxGeometry>
        </mxCell>
        <mxCell id="trG8RAwOMToN1kAprwP--56" value="32" style="text;html=1;align=center;verticalAlign=middle;whiteSpace=wrap;rounded=0;" vertex="1" parent="1">
          <mxGeometry x="970" y="415.33333333333337" width="40" height="30" as="geometry" />
        </mxCell>
        <mxCell id="trG8RAwOMToN1kAprwP--57" value="" style="shape=image;verticalLabelPosition=bottom;labelBackgroundColor=default;verticalAlign=top;aspect=fixed;imageAspect=0;image=data:image/png,iVBORw0KGgoAAAANSUhEUgAAAjIAAAD4CAYAAAD2IAyiAAAMPmlDQ1BJQ0MgUHJvZmlsZQAASImVVwdYU8kWnluSkEBoAQSkhN4EESkBpITQQu9NVEISIJQYA0HFXhYVXAsqImBDV0UUrDQ7YmdR7H2xoKKsiwW78iYFdN1Xvnfyzb1//jnznzPnzi0DgNpxjkiUi6oDkCcsEMcE+dGTklPopF6AwJ82sAbqHG6+iBkVFQagDZ3/bu+uQ19oV+ylWv/s/6+mwePncwFAoiBO5+Vz8yA+AABezRWJCwAgSnmzqQUiKYYNaIlhghAvluJMOa6W4nQ53iPziYthQdwOgJIKhyPOBED1EuTphdxMqKHaD7GjkCcQAqBGh9g7L28yD+I0iK2hjwhiqT4j/QedzL9ppg9rcjiZw1g+F5kp+QvyRbmc6f9nOf635eVKhmJYwqaSJQ6Okc4Z1u1mzuRQKVaBuE+YHhEJsSbEHwQ8mT/EKCVLEhwv90cNuPksWDOgA7Ejj+MfCrEBxIHC3IgwBZ+eIQhkQwxXCDpNUMCOg1gX4sX8/IBYhc8m8eQYRSy0MUPMYir4sxyxLK401n1JTjxTof86i89W6GOqRVlxiRBTIDYvFCREQKwKsUN+TmyowmdcURYrYshHLImR5m8OcQxfGOQn18cKM8SBMQr/krz8oflim7IE7AgF3leQFRcsrw/WzuXI8odzwS7xhcz4IR1+flLY0Fx4fP8A+dyxZ3xhfKxC54OowC9GPhaniHKjFP64KT83SMqbQuycXxirGIsnFMAFKdfHM0QFUXHyPPGibE5IlDwffAUIAyzgD+hAAls6mAyygaCzr6kP/pP3BAIOEINMwAf2CmZoRKKsRwiPsaAI/AkRH+QPj/OT9fJBIeS/DrPyoz3IkPUWykbkgCcQ54FQkAv/S2SjhMPREsBjyAj+EZ0DGxfmmwubtP/f80Psd4YJmTAFIxmKSFcb8iQGEP2JwcRAog2uj3vjnngYPPrC5oQzcPeheXz3JzwhdBEeEq4Rugm3Jgnmi3/KMhx0Q/1ARS3Sf6wFbgk1XXA/3AuqQ2VcB9cH9rgzjMPEfWBkF8iyFHlLq0L/SftvM/jhaij8yI5klDyC7Eu2/nmkqq2qy7CKtNY/1keea/pwvVnDPT/HZ/1QfR48h/7siS3G9mNnsBPYOeww1gTo2DGsGevAjkjx8Op6LFtdQ9FiZPnkQB3BP+INXVlpJfMd6xx7Hb/I+wr406TPaMCaLJouFmRmFdCZ8I3Ap7OFXIdRdCdHJxcApO8X+ePrTbTsvYHodHznFvwBgNexwcHBQ9+5kGMA7HWDt3/Ld86aAV8dygCcbeFKxIVyDpceCPApoQbvND1gBMzg+8seOAFX4Al8QQAIAZEgDiSDiTD7LLjOxWAqmAnmgWJQClaANaASbARbwA6wG+wDTeAwOAFOgwvgErgG7sDV0wNegH7wDnxGEISEUBEaoocYIxaIHeKEMBBvJAAJQ2KQZCQNyUSEiASZiSxASpEypBLZjNQie5EW5ARyDulCbiEPkF7kNfIJxVAVVAs1RC3R0SgDZaKhaBw6Ac1Ep6BF6EJ0GVqB1qC70Eb0BHoBvYZ2oy/QAQxgypgOZoLZYwyMhUViKVgGJsZmYyVYOVaD1WOt8DpfwbqxPuwjTsRpOB23hys4GI/HufgUfDa+FK/Ed+CNeDt+BX+A9+PfCFSCAcGO4EFgE5IImYSphGJCOWEb4SDhFLyXegjviESiDtGK6AbvxWRiNnEGcSlxPbGBeJzYRXxEHCCRSHokO5IXKZLEIRWQiknrSLtIx0iXST2kD0rKSsZKTkqBSilKQqX5SuVKO5WOKl1Weqr0maxOtiB7kCPJPPJ08nLyVnIr+SK5h/yZokGxonhR4ijZlHmUCko95RTlLuWNsrKyqbK7crSyQHmucoXyHuWzyg+UP6poqtiqsFRSVSQqy1S2qxxXuaXyhkqlWlJ9qSnUAuoyai31JPU+9YMqTdVBla3KU52jWqXaqHpZ9aUaWc1Cjak2Ua1IrVxtv9pFtT51srqlOkudoz5bvUq9Rf2G+oAGTWOMRqRGnsZSjZ0a5zSeaZI0LTUDNHmaCzW3aJ7UfETDaGY0Fo1LW0DbSjtF69EiallpsbWytUq1dmt1avVra2o7aydoT9Ou0j6i3a2D6VjqsHVydZbr7NO5rvNphOEI5gj+iCUj6kdcHvFed6Sury5ft0S3Qfea7ic9ul6AXo7eSr0mvXv6uL6tfrT+VP0N+qf0+0ZqjfQcyR1ZMnLfyNsGqIGtQYzBDIMtBh0GA4ZGhkGGIsN1hicN+4x0jHyNso1WGx016jWmGXsbC4xXGx8zfk7XpjPpufQKeju938TAJNhEYrLZpNPks6mVabzpfNMG03tmFDOGWYbZarM2s35zY/Nw85nmdea3LcgWDIssi7UWZyzeW1pZJlousmyyfGala8W2KrKqs7prTbX2sZ5iXWN91YZow7DJsVlvc8kWtXWxzbKtsr1oh9q52gns1tt1jSKMch8lHFUz6oa9ij3TvtC+zv6Bg45DmMN8hyaHl6PNR6eMXjn6zOhvji6OuY5bHe+M0RwTMmb+mNYxr51snbhOVU5Xx1LHBo6dM7Z57CtnO2e+8wbnmy40l3CXRS5tLl9d3VzFrvWuvW7mbmlu1W43GFqMKMZSxll3gruf+xz3w+4fPVw9Cjz2efzlae+Z47nT89k4q3H8cVvHPfIy9eJ4bfbq9qZ7p3lv8u72MfHh+NT4PPQ18+X5bvN9yrRhZjN3MV/6OfqJ/Q76vWd5sGaxjvtj/kH+Jf6dAZoB8QGVAfcDTQMzA+sC+4NcgmYEHQ8mBIcGrwy+wTZkc9m17P4Qt5BZIe2hKqGxoZWhD8Nsw8RhreFoeEj4qvC7ERYRwoimSBDJjlwVeS/KKmpK1KFoYnRUdFX0k5gxMTNjzsTSYifF7ox9F+cXtzzuTrx1vCS+LUEtITWhNuF9on9iWWJ30uikWUkXkvWTBcnNKaSUhJRtKQPjA8avGd+T6pJanHp9gtWEaRPOTdSfmDvxyCS1SZxJ+9MIaYlpO9O+cCI5NZyBdHZ6dXo/l8Vdy33B8+Wt5vXyvfhl/KcZXhllGc8yvTJXZfZm+WSVZ/UJWIJKwavs4OyN2e9zInO25wzmJuY25CnlpeW1CDWFOcL2yUaTp03uEtmJikXdUzymrJnSLw4Vb8tH8ifkNxdowQ/5Dom15BfJg0LvwqrCD1MTpu6fpjFNOK1juu30JdOfFgUW/TYDn8Gd0TbTZOa8mQ9mMWdtno3MTp/dNsdszsI5PXOD5u6YR5mXM+/3+Y7zy+a/XZC4oHWh4cK5Cx/9EvRLXbFqsbj4xiLPRRsX44sFizuXjF2ybsm3El7J+VLH0vLSL0u5S8//OubXil8Hl2Us61zuunzDCuIK4YrrK31W7ijTKCsqe7QqfFXjavrqktVv10xac67cuXzjWspaydruirCK5nXm61as+1KZVXmtyq+qodqgekn1+/W89Zc3+G6o32i4sXTjp02CTTc3B21urLGsKd9C3FK45cnWhK1nfmP8VrtNf1vptq/bhdu7d8TsaK91q63dabBzeR1aJ6nr3ZW669Ju/93N9fb1mxt0Gkr3gD2SPc/3pu29vi90X9t+xv76AxYHqg/SDpY0Io3TG/ubspq6m5Obu1pCWtpaPVsPHnI4tP2wyeGqI9pHlh+lHF14dPBY0bGB46LjfScyTzxqm9R252TSyavt0e2dp0JPnT0dePrkGeaZY2e9zh4+53Gu5TzjfNMF1wuNHS4dB393+f1gp2tn40W3i82X3C+1do3rOnrZ5/KJK/5XTl9lX71wLeJa1/X46zdvpN7ovsm7+exW7q1Xtwtvf74z9y7hbsk99Xvl9w3u1/xh80dDt2v3kQf+Dzoexj6884j76MXj/MdfehY+oT4pf2r8tPaZ07PDvYG9l56Pf97zQvTic1/xnxp/Vr+0fnngL9+/OvqT+nteiV8Nvl76Ru/N9rfOb9sGogbuv8t79/l9yQe9Dzs+Mj6e+ZT46ennqV9IXyq+2nxt/Rb67e5g3uCgiCPmyD4FMNjQjAwAXm8HgJoMAA3uzyjj5fs/mSHyPasMgf+E5XtEmbkCUA+/36P74NfNDQD2bIXbL6ivlgpAFBWAOHeAjh073Ib2arJ9pdSIcB+wKeJrel46+Dcm33P+kPfPZyBVdQY/n/8Fd2h8W75VO38AAACKZVhJZk1NACoAAAAIAAQBGgAFAAAAAQAAAD4BGwAFAAAAAQAAAEYBKAADAAAAAQACAACHaQAEAAAAAQAAAE4AAAAAAAAAkAAAAAEAAACQAAAAAQADkoYABwAAABIAAAB4oAIABAAAAAEAAAIyoAMABAAAAAEAAAD4AAAAAEFTQ0lJAAAAU2NyZWVuc2hvdLXNcHcAAAAJcEhZcwAAFiUAABYlAUlSJPAAAAHWaVRYdFhNTDpjb20uYWRvYmUueG1wAAAAAAA8eDp4bXBtZXRhIHhtbG5zOng9ImFkb2JlOm5zOm1ldGEvIiB4OnhtcHRrPSJYTVAgQ29yZSA2LjAuMCI+CiAgIDxyZGY6UkRGIHhtbG5zOnJkZj0iaHR0cDovL3d3dy53My5vcmcvMTk5OS8wMi8yMi1yZGYtc3ludGF4LW5zIyI+CiAgICAgIDxyZGY6RGVzY3JpcHRpb24gcmRmOmFib3V0PSIiCiAgICAgICAgICAgIHhtbG5zOmV4aWY9Imh0dHA6Ly9ucy5hZG9iZS5jb20vZXhpZi8xLjAvIj4KICAgICAgICAgPGV4aWY6UGl4ZWxZRGltZW5zaW9uPjI0ODwvZXhpZjpQaXhlbFlEaW1lbnNpb24+CiAgICAgICAgIDxleGlmOlBpeGVsWERpbWVuc2lvbj41NjI8L2V4aWY6UGl4ZWxYRGltZW5zaW9uPgogICAgICAgICA8ZXhpZjpVc2VyQ29tbWVudD5TY3JlZW5zaG90PC9leGlmOlVzZXJDb21tZW50PgogICAgICA8L3JkZjpEZXNjcmlwdGlvbj4KICAgPC9yZGY6UkRGPgo8L3g6eG1wbWV0YT4KHn4gDwAAABxpRE9UAAAAAgAAAAAAAAB8AAAAKAAAAHwAAAB8AAAPw2Xho/0AAA+PSURBVHgB7N1Nltu2EoZheZJRdpMFJJlnB9lG5k7WkAXZ3lh8ib6mD80GKFACxSrpwTky/4GqtwrAR7hb/eHrVC4KAggggAACCCCQkMAHQiZh1JiMAAIIIIAAAm8ECBmJgAACCCCAAAJpCRAyaUPHcAQQQAABBBAgZOQAAggggAACCKQlQMikDR3DEUAAAQQQQICQkQMIIIAAAgggkJYAIZM2dAxHAAEEEEAAAUJGDiCAAAIIIIBAWgKETNrQMRwBBBBAAAEECBk5gAACCCCAAAJpCRAyaUPHcAQQQAABBBAgZOQAAggggAACCKQlQMikDR3DEUAAAQQQQICQkQMIIIAAAgggkJYAIZM2dAxHAAEEEEAAAUJGDiCAAAIIIIBAWgKETNrQMRwBBBBAAAEECBk5gAACCCCAAAJpCRAyaUPHcAQQQAABBBAgZOQAAggggAACCKQlQMikDR3DEUAAAQQQQICQkQMIIIAAAgggkJYAIZM2dAxHAAEEEEAAAUJGDiCAAAIIIIBAWgKETNrQMRwBBBBAAAEECBk5gAACCCCAAAJpCRAyaUPHcAQQQAABBBAgZOQAAggggAACCKQlQMikDR3DEUAAAQQQQICQkQMIIIAAAgggkJYAIZM2dAxHAAEEEEAAAUJGDiCAAAIIIIBAWgKETNrQMRwBBBBAAAEECBk5gAACCCCAAAJpCRAyaUPHcAQQQAABBBAgZOQAAggggAACCKQlQMikDR3DEUAAAQQQQICQkQMIIIAAAgggkJYAIZM2dAxHAAEEEEAAAUJGDiCAAAIIIIBAWgKETNrQMRwBBBBAAAEECBk5gAACCCCAAAJpCRAyaUPHcAQQQAABBBAgZOQAAggggAACCKQlQMikDR3DEUAAAQQQQICQkQMIIIAAAgggkJYAIZM2dAxHAAEEEEAAAUJGDiCAAAIIIIBAWgKETNrQMRwBBBBAAAEECBk5gAACCCCAAAJpCRAyaUPHcAQQQAABBBAgZOQAAggggAACCKQlQMikDR3DEUAAAQQQQICQkQMIIIAAAgggkJYAIZM2dAxHAAEEEEAAAUJGDiCAAAIIIIBAWgKETNrQMRwBBBBAAAEECBk5gAACCCCAAAJpCRAyaUPHcAQQQAABBBAgZOQAAggggAACCKQlQMikDR3DEUAAAQQQQICQkQMIIIAAAgggkJYAIZM2dAxHAAEEEEAAAUJGDiCAAAIIIIBAWgKETNrQMRwBBBBAAAEECJkXy4HPnz9f/vrrr8svv/zyYp5zFwEEEEAgCoF///338tNPPw0xh5AZgjFHJb///vulCBkFAQQQQACBMwn8999/lw8fPgwxgZAZgjF+Jf/888/l77//jm8oCxFAAAEEnp4AIfP0IR7v4CjlO94yNSKAAAIIvBoBQubVIn6nv1Zj7gTocQQQQACBoQQImaE4n78yqzHPH2MeIoAAApkIEDKZonWyrVZjTg6A5hFAAAEE3hEgZN4hcaJFoPabSn/88celfBQEEEAAAQTOIPDnn39efv755yFN+62lIRhjVtJajfn69WtMg1mFAAIIIIDATgKEzE5gmW6vCZnyK9gfP37M5AZbEUAAAQQQaBIgZJpocl+oiZjikdWY3HFlPQIIIIDAjwQImR95PM1RTchYjXma8HIEAQQQQOAbAULmCVOhJmKKm1ZjnjDYXEIAAQRenAAh84QJUBMyVmOeMNBcQgABBBC4EDJPmAS1L8CzGvOEgeYSAggggAAh82w5YDXm2SLKHwQQQACBLQJWZLboJLxmNSZh0JiMAAIIIHAzAULmZnTxHrQaEy8mLEIAAQQQOJYAIXMs34fWXluN8UO+Dw2BxoIQ+Pz583dLvnz58rb/66+/Xn777bfv5+0ggMBzECBkniOOF6sxTxJIbrwjUETJLEbKxaVImW+unZuvzdtPnz4RMjOMoNtrcTxCiK7bHNnGuu6CfWT9pb7Sxug6S72ZCiGTKVobtlqN2YDjUloCNYF+qzOEzK3kHvPcyFjfa/G9uVLERfmDvY8sRcwUu1+yTL+WqyQnMP33UfkrkD98yjnldQhMA9jX+fNMXtdye53rvceFjxKTQIlNbxwfcd+94+fIvN3jb8zoHm+VFZkpS7IXqzHZI9hvf3nTK2+upZT9a6W8pc3Lzhn/WOjIt/RpsvzO4ho31x9L4IwVjC0PJyFy1x/XLasxPf1zy4a910o/Lzn+kuV4raSFIwm0lP+Rbar7sQTK2+o0SA15Yy35Uj5ZSiu/p8F6N4/CUYlJYGScb8mN9TP3UlrX94jjTP36Xr7r58vf31ESE6h1kFdO6MShrJo+SsBkzZORExwhU02xECdLbGo5esa5EePnyLztYVDGiVcu/mtpypKspbXsPiV0VpfY/Y1AK7ZHAJoG3buW0Y+waVnncol+/u2lcm55fnl/a3+aLC/TgN+67HwQAuu4zjEv5pVr6+u9ZpfYl0/5NfxaOSI3ZltnH+6xv9g827j0Yz5X8+llzr2yisvu+5Sk795iRrxNZOeS3f5Hv82VPMqaN9Mg/q4P1PpFOWdFJnvP+L/9e2Je4l7ujxb7PX08ov3RMsmKzJTpGUvrjX1KsIzusPkbgZ4fEpwGtre7y7a8XS7f9sqF+S3w7aYd/5T6pgF/xxMxbq39sHvNsuLbzK523bkcBHr6yNKTSTSEXHEs/fTar2jL2WUkN/ajKSv29BGYQvruTTTrW3Wfx89/1zTJvovpMs574rvnjW/ZRtmfBs9UsK9xm/3L5leqIDzQ2DmevdsHmra7qa3c3V3ZCz/gh30TBr81SSV0hcnfCLRiWgbrPQJmDXSr3q2JYF1P5ONeHwmZyFHss63EcCtv19eKUIhc1vbOx/f0+cj+HmUbIXMU2QPrrQ3cEv9A4AdXXYvnPKCNmHy36p/bWW+jTwDLkPT6N4Llsl37jyfQG+s5n8v9kcts53ob2eaIthEyEaOyYVOrI2884lJgAltvmCMn3lberAfQ5XEWMdPr20iegVPqqU3rjfWcx5Fj3vKlnFf2ESBk9vE6/e5a8kv808NyswHzgLveHhHTWu6s210fH2HHzbAaD/b6FXlSa7jm9IrAOj+vHa8eD3XYytsMfS4UyMkYQiZaRDbsaSX+xiMuBSbQiueRA9nWDxe2JoXoAqDFce1PdD8Cp2oI00r81jHdOj6yH40A0uqLI+p+tToImUQRrw3Y0TtrIrwPN/WMgWzvZFAmiuj/xVTrF7UJjpB5eIoPbbA3znPso4+Ns53LbfS+NjSgAysjZAbCPLKq1gR0ZJvqPpbAcgBb7pcB+MhBuJVLSxvW+5FFQK8/kX04NtOeo/a9QiZyvFs5e2S/f44sqHtByNS5hDtb68SSPlyYug2qxXMtHsrxUTGutbV1LvKbYmtSWPsTeWLrTpwXvnEdz2vHkVG1+r8cvS1qvtl36g0ZSu3bS6eQZzCdjRUCe76ddBIRw79xd0/7xfwjbKhguelUzzekloqnSeLNj5sa8dDpBGpjYMuoSSiE/Dbf2d5W/zOmz4R2bm/TP556JIGaej/qTf2Rfr1yW1M3PfUHF3tXMZZ2Rn1b7PUlqv2v3A96fa+NgcvcXO9HHx/X9pbj6WWhF4f7VgSsyEwZFL3U3kSmOEY3m30bBGox3bj97dI0EQ9dUdhrwzQ5hHzLtSJzLXPyX2/9bbmWZ5HHx1a+Ru1fLcahzq+EjcNgBGpvItHfNoIhDGdO7wrCNFD8sGozekWhvAGu29g6jvrG2MtzNL9wifXEBu3N1cgoamN66Xfy8/ao+WHf29k95MnaxELIPAT9YY20BrJarJfnRsd97+RAyByWEiq+QmDZD67tj+4nV0zbfbnV/3dX5IHvBAiZ7yji7dQSPnonjUcxnkW9KwjrAXt07Gv5tW5zfRyP5te3N9m1nbVjb7wRo3fdpr15OrqfXLdw3x213Iz6krDPs/PuJmTOY3+15VrCR++kV51yQ/fEu47/6NjvnSCKPRFLrzAkZCJG77pNe/P0eo3n3dHK1dF9+zwPz2k55sh0DotQrdY6r2QPFaK7jFmLlJ7j0fFvDapbtkQUA71+RLT9riR6kYf3/Bdo9JWN2rhe+pvcvC+ZCZn7+B32dG0yGT2RHWa8iq8S2DM4z7lwtdKdN/QKgLn9qANurx8mi50JEuT2Zf5d248+RraETBDUac0gZAKGTrIHDMpgk3on33ngPmKAbuXZ3GZtOxjDkOp6WRIyQ3A/tJK9OXpEPxnpcK1PRbd5pP9H1UXIHEX2jnol+x3wEj3aO0gfNdD1tr/Mx4h4MwiZUSJqVD0R41izaW+O1uqIdG7Zl+b9o/p3JL+PtsUX4k3ZFKm0vvhpSoRIZrJlEIHy5Vgl5mW7LtN/P719AV3ZHlFaudZqq9gxTaSty6edb33B2NqgYvu9LGtx+vLlyw9NLe9Z7u9pvzxX4lPKso4fGpoOij+zTx8/flxfTn/c+ir/mmOFQ8T8nG1t9bc9eTHXZbsicLRSUv8+AlN43n1JGcW+j2HWu6cB7e2PRJbtI8ret91poniEWbvbKLxq/WZ97lau63puPe5pv9xTON/axrONFXs4RPe91d92J7wH3hHwX0vvkJx3QqKfx/4VW94zSZR7o04UzyBkWn1/b4zm+6PGak8/641rFp9nO5fbZ4jTnpgedS8hcxTZG+pdJvi8L9FvAOmRLgJzjvVuuyo94abeCa/ct7f01t3DsNZ+OXfPCsxWu9nHjmL/ln/ra3tj++j71/aW4+wxejTDVnuETIvMg8+3Ou2DzdDcixBo5VttsI0+4PaKjZqQuBbu3rpb3Jbn1+1vxaCIm/lT7lt+lnVe2y/PZS17BF65N3JpxXqdE5F9iGwbIRMkOrVEzzwIBcHKjAaBWr5tTYqRc7FXbNwyafTWvcVuvrZsv8W/TMjL+xrhexM2c73Xtj31tdo58/w1v5bXI+dnYdiK95l8n6ltQiZANCV5gCC8mAnLSaBnPzKeMlH3+HDLhF6eKf2zfOYVkp62avfM7df6e6+AWcahVk+t3eirFUuf5v3emM7+FhaRy2znchvd5sg817YRMmsiJxzXBiRJfkIgXqTJWr4tB9j1fvRc7J30ZiExKsx7OZb2a8/cIzTKs+t41Y6jx3Adkxqnml/zufXz0Y5nO5fbbDGJxnRpDyGzpHHCfqvDnmCKJl+EwHIw7dmPjuUsITNz6RUTtftGTGY9MSz3ZCo1Vi0/y72RS2uMHy2sIzM42rZc2X00jRPqryX5iMHtBFc0mYBALd9aE0Q5nyEXzxYyve2vOY+agHsn/UwT55rV1nH0HG31uQTDRRoT/wcAAP//iKp5xwAAE+xJREFU7Z0BltwoDoarT5bJyTI5WZKTZa3Z1SyhhcFlhAV8vFcP22WD9OkH1FR31+s35TECP378+P16vT69HjOIjpcnYOmtdO3vv/+egkdpHOV+yX0epbX/3J5etrT2v1o8lWd0v9TOtI5ucy9tjmrnNaoj+vlMQMSciluOEfhnTlzpQ8DSW66/9LxPr/6ttC7kkRKZ3uM8jVvp+K+//vIPRoceVtOpFY/e8e+AfeomPsT6AzTlAQIfHx+feiUcn5BwoRMBS2+lpo9F/3UsfKW3Q13/+fPn6+vXr1WbvHxq7V8NPBax17dv3/S0S90a2xnmF4mlMG0tkX36/v37S+KdFy8t5v1sc36IgPIAAcnID5H98ZJrFAh4ELD0lutPz2fToey0qO1ntdznUVr7V9s8+GrbtdrD/95t1nxI3/dg2dOf0rjr2QdtHZsxQHiGQDoY9dhron3GQ3qNQqA0maru0jr6wmAxbU0kvMZXa//K2fLh7jVtu1bf7cf7+asso+vVikekj/h0bojOsaY7EpkaIYf3VTypyGcXkgMmmuxA4MrCMKsGW32U+7xKOpbPjr0Yn/WZvuflf692rbkxtT8/7tWvRzslXXpp4IoPYpskVCnPK89Hu5dE5oGIpOLR4wjifgAFXToTyCcr1Vtez6y/0oKR+7hyItMaZ2e53W5+pUSm5IunDlsCULKr5dmo95DIDI6MJSK5RoFAbwKW1vLFXc5n1x+JzO9PP11bcZZrTy+iNY2X7LauR9dtafzVGHi8L3GvJbse/Y5qk0RmFOn/9TPjgByMiO46EChNorn+oi8GLShmSmS8EonaIqVx9+q/JU61e1rjqL5E167amdYSpxFFWMpL+mvVxgi7vPogkfEia7RrLS7RB6PhBpeCE2hdEFbRXqu/cp9XSRers2Ov/lsXK08Gd32z5sczlpF9KWmy95iTfjRZ0fqM2dl7d+P35PMkMgPpWyLqLeye7pQGo+XHLtdkshAukUtLLKL7cIVvq049fW5hLvd4lR0TGS+WPdotJWW9Ndiq/RZ99vD7qTb8RtZTHgXttyTsoOb+Y1aL+He8RxaNqKVlQes9mT7NonUy9/S7dRx4sWqJu9joyeCub60M5b7IPwAKh1Hzfav2RR81jdyN35PPh05kIg+6q0GzBmnkwdg6QCy/drh2Nf4j7i9NnhoPmchWGlPKtFWrnr4r41qtNveua4uU2uXJ4K5PamNLHXnuFA6WDxKj3sXSvvSjL3lfY16bH3rbNrK9kImMgNdAjITh1VdJQF799WhXY2ANyN2vRZxESxrTWHlMoj101qMN0ar6eVbrhN6jz7yNs37T9/Lnep1LfNN+SseeDO74UtNv7k9UP4SB2JbbK+de84b0p6+zGNQYnz0b/b1w37WUf2/JAfDQwNzF+h6UQ1Tdv2/Fg5J8V8iV7z3xsCFSm8eCES5upe9zUW6zaE3tvVrnc0bp+WOyf0n8PIo1xvN+pG+xwaO0fj+RJ4M7ftU0nLcdeV0o+fI0+5JdyjYyU7WxWEfKtKyMUa7NXCyfjmDM7BK2ByJQ0pdoTF6zj58W1McCYf4ErAy0lvu8ivZxVh+JjFf31d9/ULs8GdxxTtiojbXak+MdH/TZ0pjU95+qS3Yp76fs6tFvmBX1TMg9HH2qDRVJWu+wuDzFe6d+awv4LjqrcdCx57mIax9ntecCfDZ/pjZ5Mrgz9lIba8fRdW3ZH8FmscGyTa/did/Tzz6eyLRMQlEHXy14JeHUnuN9CNQI1MZNhImz5kOv92ssdKL2nEe0j7OaRMaOeGv8lG1kbZd8iWBzaT1SrnZ05rj6aCJTA6uAPScAzzCp/WkdQdCePtP2GAKppvLj3TRWWjxyLiQyMf/8unUd0HiOGWHv9VLy5b3W+j5Vsm0GrjUSjyUyNagKV2vPSagG6Z33S/690xbPQCAlcPYxQs9xIm2JjtNXz/ZTn+4ci006T5zVnraf9avvef5AdqYJ7V9qTwbvxrA0V6Z2p8fv9jPiudROPRb/IpQa5wg2vmvD8ERGBlLroFMhSO05CbwL7+w5SzRRBH1mN+/FJnA2dnovUlZfEemI3+lcUTruzSdlUeozve45h1mxSvvWY08GKY8rx622iw+R51Brzhebo5SSfaqNKHa+Y8dQyq0TjoLN64iD0IJeEox1L9cg0EqgpCsZJx5jIx9/ch6xtM4rHoyUh8Uqv0Yio7T+rFdJZCw/ZMxGKWfzR9Sx3cpu2MxUg5gPeus8kijOAFu+zmL7mV+89xwBS1M6RrwWaG1fa8+F+A5ZEpnfzbvcXlq5E78zbav2tI46j5Z8iGRvyUZleyeGTz87JJGxMlWFd7V+Glit/5JYas/xPgRKBEqa8kwsrD7lWsRi2WrNK56LuNVffs0zXq1zrCeDd7XRGj/hGdF+8TuPtZx7xvsd1jXO77QZ5RnXREZEdzbA5H15WSIoXZP7IxdLLHKNAoF3CFh6GjFJWv1G1bFlqzV/eM4dVn/5Nc+F7WyeTe3wZPCOvuUZsSm18ew4ov0l/UUbLyU7lfe78YvwnFsicwZNBl0qyNZBKMA9J4O7ASkNyLvt8vyeBEpjaMQYsMZktIlZVVHipBO01umco8/2qrWPs9ozbla8LFs8GbzLsjRvzmB/yfaIY6U2Tt6NX4TnXBKZUnBFmFaAz+6fQcwaSEsolr96PzUESgQsLclY8FwMU1tmH3cj7W+dvzxjN3MiI7qz4mVdE9aRSol7JBvVltKcopz1vhlrl0RGQFjQzhb1kiAUclp7Tgh3gpjaqMd32uPZPQmUFsZRurfGrug5ainZq2NQa69FsBQv7Vdrz/i1zp9eDO5qQxnV6rM15K4NV58v6S6SjalPJXuVeXrvbMeus5OCk0FWG0Ctk4FCr7U3OhDqq9ondVRBj2ZDf+0ESuNgpJYsLYueo5aSvelYlGOvOaMUs7x/EpmygmZLxEqaGzlOyzTtd0o2q07tp+a46j47XZk8FGhLHU0wls3RbJxDkntbaU3oo3VkadlzEb4b8doErf5cmYuu2EQic4WWfW8EhrZln6+e2fr57jhXauMkjqXXLfmQR46BHqJ8/fr19fPnz2Zbopj+/fv31yGSP+yW82/fvv1xjRMInBGw9H8kEC95afny5YsevlX/+vWr+JyOPa3TG8WGYwJPL4U5tsafZZzYn7K07nnnmvCS2LUUrznL0o5ljxcDq6+r12bw4SzW0ef82jjx0uZVHbx1/2F8mHKW6R7OScL1x0vuj1Byu+T8EHUE07BhEgKiF0tHUa5F1nMrO6/54sq85SXHI0Fr0o8Xgx5+tXJ8SotnOnvKpivcz+yXeWbmEs761gEp4OXep4sljhlE/TQ3+v8/AUtDURIYtSOyplv5eS3irQuw52LROm96Mfi/mu8dtfjxxLx/prHIYyONxpkPntpMbfA6DpfIXJkUBP7TA1Mn+rSeRdheoqLddgK1ySXV1ZPHT4+zM6KtDL18kHZbY3Pmx533WhIAsdGLwR3b02dbWY5KZsSeM7YzzfW1cZLGYbbjcImMADwTTj5hjBK0FdiSMKx7uQaBnEBJP7nGI5zntkc6b+Uo93mU1v49E4lWjXgx6Mm1lae3LzU7oieFeUxq/uT3z3QeMpFpzcp18D4lKO0/rb0H10ziwtYygasaTzX2xHHZk2feEX7yuvJDj3CT8anP3rFc27jav9zf0wZp66oNvfq/w6/2bKtP4kvvIm3WxpjEf7ZS82s2f1J7QyYyYmBNSOn7HmJOIVnHJVFY93INAjmBVL/Rj2VReaqUxpkXs3yBknOvvkrt5qxbF/VSe1ev5wxye0adt/rdY/4Xn+VV61Pel/tmLLWxNKNPanPYRKYGPR+c6tCoOu9fznsMqFH2089zBK5q29LayGtP6no0q3yRkvORrKWvvNQW19725Qxye0adX2UvWrmiVWlfXq18r7Q9itGVfmpj6Upb0e79PGqCWHhVxHL/qFISxKj+6WduAiX99F6QerX35AQ+mlU+j1ydh3owz9XdutD26FvayBnk9ow+f8d/eUa0k7/kur5aecn90Zi8E4PaWHqnzSjPhE1kBJAI6IrYRkG1bBKRUCDQQqA2oVj6evLak9oezSpfsOR8NPtcQ1fmwR625gxye544H60D5fik9ntzrjHs3d/I9kInMlcnkREDsCSGkUGjr7kJlDSkk2e0+knao1nlc8jVOahH7HLeJDL/JTJSC6vswqRaqvFL753tONRXFByTwKfS+m+r5cFDfO7/Rv3j4+OTjYdA+DqCT1S4UCIg/+b87KsCSs89df3Jr9oosbrzVQ1n7HNf0/7v9JnG7qx/uS+3Qf61vJYRNuT9a99R6tq/2r9jp8zlwljWktVKjduRvEzrcvhE5uy7LSzqx09QbiIsCWFmAVgMuQYBCEAgOgFN8CT5uFMkaZHkbcXkJeVSWr/0npnXsfCJjEC2dkEUfl577o5Ydnj2l/vGOQQgAAEIfCagSY384KslPZZraaIix6vuvKj/eU0ikxMZfF4LQG6OR2ZZssGjr9wfziEAAQhAAAJ3CJTWMG1z5rVsih2ZCB8vWSJgN0aHADUEIAABCEQmYK1hqb0kMikNp+Mnf+m3JICZA+8UJpqFAAQgAIGABErrmJo683o2xY6MgH5yV8YSALsxKn9qCEAAAhCITsBax1KbSWRSGo7HT+zKlII/c9AdQ0TTEIAABCAQkEBpLVNTZ17TptmREdhP7MpYwWc3RqVPDQEIQAACMxCw1rLUbhKZlIbz8ZVdmbsJRynwMwfcOTw0DwEIQAACAQmU1jM1deZ1baodGQFeC4YGRes7wbH6upscqV3UEIAABCAAgVEErPUs7fvOWpm288TxdImMQLL+MV0J3p3/9Gv1QyJTIs11CEAAAhCISoBEJlhkrny8JP/BUZKZq8UKOknMVYrcDwEIQAACEQhYa1pqFzsyKY0BxyN+6ZfdmAGBpAsIQAACEHAnIGumJDJSl8rMP6hP+dGSBMJzV8bKXGcOckm4XIcABCAAgbkJ1BKUs+TlzPP0u6nS+yJ+wea0iYwER5KZ1nLld2XYjWmlyn0QgAAEIPAkgSs/1Pew88pa2qO/ljamTWTEuSsBbN1RYTemRTbcAwEIQAACEQhcWQd72Esi04Ni0sbVXZmWX2ZiNyYBzCEEIAABCIQmQCJz/CXzsbj/Dh2linFW4lF6pJZJWrsx0tbkiEo4uA4BCEAAAhCYnsD0icyVbLT2p9hWUtT6kdT0SsABCEAAAhCAwIQEpk9krn68VNqVYTdmQvViMgQgAAEIbE9g+kRGIthjV4bdmO3HAgAgAAEIQGBCAkskMnd3ZdiNmVC5mAwBCEAAAhA4CCyRyEgk7+zKsBvDWIAABCAAAQjMSWCZRObqroz+JRK7MXMKF6shAAEIQAACQmCZROYfZz4+mqOqv/TLbkwzMm6EAAQgAAEIhCOwVCJz9eMl+XNs+fPqvOhuTX6dcwhAAAIQgAAEYhFYKpG5+vGSFQr+b4xFhWsQgAAEIACBmASWSmQE8ZVdGSsk7MZYVLgGAQhAAAIQiElguUTmzq4MuzExRYpVEIAABCAAgRKB5RIZcfTdXRl2Y0oy4ToEIAABCEAgJoElE5l3dmXYjYkpUKyCAAQgAAEInBFYMpERh60/qz4DwW7MGR3egwAEIAABCMQksGwic+XjJXZjYooTqyAAAQhAAAI1AssmMlc+XmI3piYT3ocABCAAAQjEJLBsIiO4W3Zl2I2JKUysggAEIAABCLQQWDqRadmVIZFpkQn3QAACEIAABGISWDqREeRnuzIkMTFFiVUQgAAEIACBVgLLJzJnuzIkMq0y4T4IQAACEIBATALLJzKC3fpTbJKYmILEKghAAAIQgMAVAlskMtbHSz9+/HjJt19TIAABCEAAAhCYl8AWiYx8vPTr16+X1JK8fPnyhSRmXs1iOQQgAAEIQOBfAlskMv96ywEEIAABCEAAAksRIJFZKpw4AwEIQAACENiLAInMXvHGWwhAAAIQgMBSBEhklgonzkAAAhCAAAT2IkAis1e88RYCEIAABCCwFAESmaXCiTMQgAAEIACBvQiQyOwVb7yFAAQgAAEILEWARGapcOIMBCAAAQhAYC8CJDJ7xRtvIQABCEAAAksRIJFZKpw4AwEIQAACENiLAInMXvHGWwhAAAIQgMBSBEhklgonzkAAAhCAAAT2IkAis1e88RYCEIAABCCwFAESmaXCiTMQgAAEIACBvQiQyOwVb7yFAAQgAAEILEWARGapcOIMBCAAAQhAYC8CJDJ7xRtvIQABCEAAAksRIJFZKpw4AwEIQAACENiLAInMXvHGWwhAAAIQgMBSBEhklgonzkAAAhCAAAT2IkAis1e88RYCEIAABCCwFAESmaXCiTMQgAAEIACBvQiQyOwVb7yFAAQgAAEILEWARGapcOIMBCAAAQhAYC8CJDJ7xRtvIQABCEAAAksRIJFZKpw4AwEIQAACENiLAInMXvHGWwhAAAIQgMBSBEhklgonzkAAAhCAAAT2IkAis1e88RYCEIAABCCwFAESmaXCiTMQgAAEIACBvQiQyOwVb7yFAAQgAAEILEWARGapcOIMBCAAAQhAYC8CJDJ7xRtvIQABCEAAAksRIJFZKpw4AwEIQAACENiLAInMXvHGWwhAAAIQgMBSBEhklgonzkAAAhCAAAT2IkAis1e88RYCEIAABCCwFAESmaXCiTMQgAAEIACBvQiQyOwVb7yFAAQgAAEILEWARGapcOIMBCAAAQhAYC8CJDJ7xRtvIQABCEAAAksR+A/XM6/XukPpHAAAAABJRU5ErkJggg==;" vertex="1" parent="1">
          <mxGeometry x="836.46" y="226.39000000000001" width="117.08" height="51.66" as="geometry" />
        </mxCell>
        <mxCell id="trG8RAwOMToN1kAprwP--58" value="" style="shape=image;verticalLabelPosition=bottom;labelBackgroundColor=default;verticalAlign=top;aspect=fixed;imageAspect=0;image=data:image/png,iVBORw0KGgoAAAANSUhEUgAAAigAAAC6CAYAAACEPLbkAAAMPmlDQ1BJQ0MgUHJvZmlsZQAASImVVwdYU8kWnluSkEBoAQSkhN4EESkBpITQQu9NVEISIJQYA0HFXhYVXAsqImBDV0UUrDQ7YmdR7H2xoKKsiwW78iYFdN1Xvnfyzb1//jnznzPnzi0DgNpxjkiUi6oDkCcsEMcE+dGTklPopF6AwJ82sAbqHG6+iBkVFQagDZ3/bu+uQ19oV+ylWv/s/6+mwePncwFAoiBO5+Vz8yA+AABezRWJCwAgSnmzqQUiKYYNaIlhghAvluJMOa6W4nQ53iPziYthQdwOgJIKhyPOBED1EuTphdxMqKHaD7GjkCcQAqBGh9g7L28yD+I0iK2hjwhiqT4j/QedzL9ppg9rcjiZw1g+F5kp+QvyRbmc6f9nOf635eVKhmJYwqaSJQ6Okc4Z1u1mzuRQKVaBuE+YHhEJsSbEHwQ8mT/EKCVLEhwv90cNuPksWDOgA7Ejj+MfCrEBxIHC3IgwBZ+eIQhkQwxXCDpNUMCOg1gX4sX8/IBYhc8m8eQYRSy0MUPMYir4sxyxLK401n1JTjxTof86i89W6GOqRVlxiRBTIDYvFCREQKwKsUN+TmyowmdcURYrYshHLImR5m8OcQxfGOQn18cKM8SBMQr/krz8oflim7IE7AgF3leQFRcsrw/WzuXI8odzwS7xhcz4IR1+flLY0Fx4fP8A+dyxZ3xhfKxC54OowC9GPhaniHKjFP64KT83SMqbQuycXxirGIsnFMAFKdfHM0QFUXHyPPGibE5IlDwffAUIAyzgD+hAAls6mAyygaCzr6kP/pP3BAIOEINMwAf2CmZoRKKsRwiPsaAI/AkRH+QPj/OT9fJBIeS/DrPyoz3IkPUWykbkgCcQ54FQkAv/S2SjhMPREsBjyAj+EZ0DGxfmmwubtP/f80Psd4YJmTAFIxmKSFcb8iQGEP2JwcRAog2uj3vjnngYPPrC5oQzcPeheXz3JzwhdBEeEq4Rugm3Jgnmi3/KMhx0Q/1ARS3Sf6wFbgk1XXA/3AuqQ2VcB9cH9rgzjMPEfWBkF8iyFHlLq0L/SftvM/jhaij8yI5klDyC7Eu2/nmkqq2qy7CKtNY/1keea/pwvVnDPT/HZ/1QfR48h/7siS3G9mNnsBPYOeww1gTo2DGsGevAjkjx8Op6LFtdQ9FiZPnkQB3BP+INXVlpJfMd6xx7Hb/I+wr406TPaMCaLJouFmRmFdCZ8I3Ap7OFXIdRdCdHJxcApO8X+ePrTbTsvYHodHznFvwBgNexwcHBQ9+5kGMA7HWDt3/Ld86aAV8dygCcbeFKxIVyDpceCPApoQbvND1gBMzg+8seOAFX4Al8QQAIAZEgDiSDiTD7LLjOxWAqmAnmgWJQClaANaASbARbwA6wG+wDTeAwOAFOgwvgErgG7sDV0wNegH7wDnxGEISEUBEaoocYIxaIHeKEMBBvJAAJQ2KQZCQNyUSEiASZiSxASpEypBLZjNQie5EW5ARyDulCbiEPkF7kNfIJxVAVVAs1RC3R0SgDZaKhaBw6Ac1Ep6BF6EJ0GVqB1qC70Eb0BHoBvYZ2oy/QAQxgypgOZoLZYwyMhUViKVgGJsZmYyVYOVaD1WOt8DpfwbqxPuwjTsRpOB23hys4GI/HufgUfDa+FK/Ed+CNeDt+BX+A9+PfCFSCAcGO4EFgE5IImYSphGJCOWEb4SDhFLyXegjviESiDtGK6AbvxWRiNnEGcSlxPbGBeJzYRXxEHCCRSHokO5IXKZLEIRWQiknrSLtIx0iXST2kD0rKSsZKTkqBSilKQqX5SuVKO5WOKl1Weqr0maxOtiB7kCPJPPJ08nLyVnIr+SK5h/yZokGxonhR4ijZlHmUCko95RTlLuWNsrKyqbK7crSyQHmucoXyHuWzyg+UP6poqtiqsFRSVSQqy1S2qxxXuaXyhkqlWlJ9qSnUAuoyai31JPU+9YMqTdVBla3KU52jWqXaqHpZ9aUaWc1Cjak2Ua1IrVxtv9pFtT51srqlOkudoz5bvUq9Rf2G+oAGTWOMRqRGnsZSjZ0a5zSeaZI0LTUDNHmaCzW3aJ7UfETDaGY0Fo1LW0DbSjtF69EiallpsbWytUq1dmt1avVra2o7aydoT9Ou0j6i3a2D6VjqsHVydZbr7NO5rvNphOEI5gj+iCUj6kdcHvFed6Sury5ft0S3Qfea7ic9ul6AXo7eSr0mvXv6uL6tfrT+VP0N+qf0+0ZqjfQcyR1ZMnLfyNsGqIGtQYzBDIMtBh0GA4ZGhkGGIsN1hicN+4x0jHyNso1WGx016jWmGXsbC4xXGx8zfk7XpjPpufQKeju938TAJNhEYrLZpNPks6mVabzpfNMG03tmFDOGWYbZarM2s35zY/Nw85nmdea3LcgWDIssi7UWZyzeW1pZJlousmyyfGala8W2KrKqs7prTbX2sZ5iXWN91YZow7DJsVlvc8kWtXWxzbKtsr1oh9q52gns1tt1jSKMch8lHFUz6oa9ij3TvtC+zv6Bg45DmMN8hyaHl6PNR6eMXjn6zOhvji6OuY5bHe+M0RwTMmb+mNYxr51snbhOVU5Xx1LHBo6dM7Z57CtnO2e+8wbnmy40l3CXRS5tLl9d3VzFrvWuvW7mbmlu1W43GFqMKMZSxll3gruf+xz3w+4fPVw9Cjz2efzlae+Z47nT89k4q3H8cVvHPfIy9eJ4bfbq9qZ7p3lv8u72MfHh+NT4PPQ18+X5bvN9yrRhZjN3MV/6OfqJ/Q76vWd5sGaxjvtj/kH+Jf6dAZoB8QGVAfcDTQMzA+sC+4NcgmYEHQ8mBIcGrwy+wTZkc9m17P4Qt5BZIe2hKqGxoZWhD8Nsw8RhreFoeEj4qvC7ERYRwoimSBDJjlwVeS/KKmpK1KFoYnRUdFX0k5gxMTNjzsTSYifF7ox9F+cXtzzuTrx1vCS+LUEtITWhNuF9on9iWWJ30uikWUkXkvWTBcnNKaSUhJRtKQPjA8avGd+T6pJanHp9gtWEaRPOTdSfmDvxyCS1SZxJ+9MIaYlpO9O+cCI5NZyBdHZ6dXo/l8Vdy33B8+Wt5vXyvfhl/KcZXhllGc8yvTJXZfZm+WSVZ/UJWIJKwavs4OyN2e9zInO25wzmJuY25CnlpeW1CDWFOcL2yUaTp03uEtmJikXdUzymrJnSLw4Vb8tH8ifkNxdowQ/5Dom15BfJg0LvwqrCD1MTpu6fpjFNOK1juu30JdOfFgUW/TYDn8Gd0TbTZOa8mQ9mMWdtno3MTp/dNsdszsI5PXOD5u6YR5mXM+/3+Y7zy+a/XZC4oHWh4cK5Cx/9EvRLXbFqsbj4xiLPRRsX44sFizuXjF2ybsm3El7J+VLH0vLSL0u5S8//OubXil8Hl2Us61zuunzDCuIK4YrrK31W7ijTKCsqe7QqfFXjavrqktVv10xac67cuXzjWspaydruirCK5nXm61as+1KZVXmtyq+qodqgekn1+/W89Zc3+G6o32i4sXTjp02CTTc3B21urLGsKd9C3FK45cnWhK1nfmP8VrtNf1vptq/bhdu7d8TsaK91q63dabBzeR1aJ6nr3ZW669Ju/93N9fb1mxt0Gkr3gD2SPc/3pu29vi90X9t+xv76AxYHqg/SDpY0Io3TG/ubspq6m5Obu1pCWtpaPVsPHnI4tP2wyeGqI9pHlh+lHF14dPBY0bGB46LjfScyTzxqm9R252TSyavt0e2dp0JPnT0dePrkGeaZY2e9zh4+53Gu5TzjfNMF1wuNHS4dB393+f1gp2tn40W3i82X3C+1do3rOnrZ5/KJK/5XTl9lX71wLeJa1/X46zdvpN7ovsm7+exW7q1Xtwtvf74z9y7hbsk99Xvl9w3u1/xh80dDt2v3kQf+Dzoexj6884j76MXj/MdfehY+oT4pf2r8tPaZ07PDvYG9l56Pf97zQvTic1/xnxp/Vr+0fnngL9+/OvqT+nteiV8Nvl76Ru/N9rfOb9sGogbuv8t79/l9yQe9Dzs+Mj6e+ZT46ennqV9IXyq+2nxt/Rb67e5g3uCgiCPmyD4FMNjQjAwAXm8HgJoMAA3uzyjj5fs/mSHyPasMgf+E5XtEmbkCUA+/36P74NfNDQD2bIXbL6ivlgpAFBWAOHeAjh073Ib2arJ9pdSIcB+wKeJrel46+Dcm33P+kPfPZyBVdQY/n/8Fd2h8W75VO38AAACKZVhJZk1NACoAAAAIAAQBGgAFAAAAAQAAAD4BGwAFAAAAAQAAAEYBKAADAAAAAQACAACHaQAEAAAAAQAAAE4AAAAAAAAAkAAAAAEAAACQAAAAAQADkoYABwAAABIAAAB4oAIABAAAAAEAAAIooAMABAAAAAEAAAC6AAAAAEFTQ0lJAAAAU2NyZWVuc2hvdJxjdjEAAAAJcEhZcwAAFiUAABYlAUlSJPAAAAHWaVRYdFhNTDpjb20uYWRvYmUueG1wAAAAAAA8eDp4bXBtZXRhIHhtbG5zOng9ImFkb2JlOm5zOm1ldGEvIiB4OnhtcHRrPSJYTVAgQ29yZSA2LjAuMCI+CiAgIDxyZGY6UkRGIHhtbG5zOnJkZj0iaHR0cDovL3d3dy53My5vcmcvMTk5OS8wMi8yMi1yZGYtc3ludGF4LW5zIyI+CiAgICAgIDxyZGY6RGVzY3JpcHRpb24gcmRmOmFib3V0PSIiCiAgICAgICAgICAgIHhtbG5zOmV4aWY9Imh0dHA6Ly9ucy5hZG9iZS5jb20vZXhpZi8xLjAvIj4KICAgICAgICAgPGV4aWY6UGl4ZWxZRGltZW5zaW9uPjE4NjwvZXhpZjpQaXhlbFlEaW1lbnNpb24+CiAgICAgICAgIDxleGlmOlBpeGVsWERpbWVuc2lvbj41NTI8L2V4aWY6UGl4ZWxYRGltZW5zaW9uPgogICAgICAgICA8ZXhpZjpVc2VyQ29tbWVudD5TY3JlZW5zaG90PC9leGlmOlVzZXJDb21tZW50PgogICAgICA8L3JkZjpEZXNjcmlwdGlvbj4KICAgPC9yZGY6UkRGPgo8L3g6eG1wbWV0YT4KcEsPFQAAABxpRE9UAAAAAgAAAAAAAABdAAAAKAAAAF0AAABdAAAODy4GdcoAAA3bSURBVHgB7J0LltsqDEAzK2u7smlX1s7K5qG05PkwiI/5CftyTsY2xiBdCVnYafr26cqDAgEIQAACEIAABAwReCNBMWQNRIEABCAAAQhA4EmABAVHgAAEIAABCEDAHAESFHMmQSAIQAACEIAABEhQ8AEIQAACEIAABMwRIEExZxIEggAEIAABCECABAUfgAAEIAABCEDAHAESFHMmQSAIQAACEIAABEhQ8AEIQAACEIAABMwRIEExZxIEggAEIAABCECABAUfgAAEIAABCEDAHAESFHMmQSAIQAACEIAABEhQ8AEIQAACEIAABMwRIEExZxIEggAEIAABCECABAUfgAAEIAABCEDAHAESFHMmQSAIQAACEIAABEhQ8AEIQAACEIAABMwRIEExZxIEggAEIAABCECABAUfgAAEIAABCEDAHAESFHMmQSAIQAACEIAABEhQ8AEIQAACEIAABMwRIEExZxIEggAEIAABCECABAUfgAAEIAABCEDAHAESFHMmQSAIQAACEIAABEhQ8AEIQAACEIAABMwRIEExZxIEggAEIAABCECABAUfgAAEIAABCEDAHAESFHMmQSAIQAACEIAABEhQ8AEIQAACEIAABMwRIEExZxIEggAEIAABCECABAUfgAAEIAABCEDAHAESFHMmQSAIQAACEIAABEhQ8AEIQAACEIAABMwRIEExZxIEggAEIAABCECABAUfgAAEIAABCEDAHAESFHMmQSAIQAACEIAABEhQ8AEIQAACEIAABMwRIEExZxIEggAEIAABCECABAUfgAAEIAABCEDAHAESFHMmQSAIQAACEIAABEhQ8AEIQAACEIAABMwRIEExZxIEggAEIAABCECABAUfgAAEIAABCEDAHAESFHMmQSAIQAACEIAABEhQ8AEIQAACEIAABMwRIEExZxIEggAEIAABCECABAUfgAAEIAABCEDAHAESFHMmQSAIQAACEIAABEhQ8AEIQAACEIAABMwRIEExZxIE2oHAjx8/Hn/+/HmJ+vPnz8f7+/vrmB0IQAACJQR+/fr1kPjhC7HEk3g8SFD+Z8EeBLIEJCmRgHJMTuQigkoWHQ0gAIEIAYklsuA5lu/fvz9+//59rLrlPgnKLc2O0mcJvL29fbmU5OQLEiogAIEKAuFTFH+pJCmSrNy1kKDc1fLoXU0gfK0jHZCcVGPkAghAIEIgFl+k2Z2TFBKUiKNQBYGQQCx48Bg2pMQxBCDQQiD2hFb6u2uSQoLS4k1cewsCseREFP/8/LyF/igJAQjMIRD7PoqMfNfFEAnKHL9jlE0JaMkJr3Y2NShiQ8A4Ae37KHdMUkhQjDsr4q0jQHKyjv1dRg7/NViot9yUepdwzJ5jhH2L7D37l/5kjN59Sr+WCknKX2uQoFjySmQxQ4AAYcYUlxVE87EVCrd+x0GSBknoZxZJUkTuqxZtgXR1vY/2JEE50mAfAo5A6sZh+Xsnx9Xr1VeYuzvqiht6ilnrK8vUnEmN23rO8nxs1U2u15KUVnv1kG1KH87AFAhA4B8BN/Hlm6/Rj5yzUNyq8VNkcUlIVM5Qfmkn7a3Ib4HhahnEhqGdVh63+kapL/bUUca8ekn5SavNdmAn/xKBAgEI/COgBVALwVCCVY8bgfRxh+Bm2amFv+ZrK+pbWa2Q+S4+nPIViQlXLiQoV7YuulURSAWClcEwJVfrjUH6vnqQq3KCSY2Feavtel3fw7dH+mhMTwsLhkmu8pyf2sLk6hz4DorzfgoEUu/QXfBd9h8Bau+ge1tspY69ddmtv+N3h0T2j4+PlwpyLjz/OpnZcTevh3y+ffsWbSnnehcvq9ehRX6Rzct41MPX9Zbdcn/CUfsS8qXn7qwskHEgYJmAC07qinaF3CtW2C7wP1drK/RlTJ1A7dMJi3as0cGi/Lp15p1JxSiJF1csPEGxnDYj2xQC1p6epOTxQPwqUrayQvYrVjnfumq99IrMA9xoW/sUzar9Uk8BvDncjfbhfdvXsf1LIMVPmAm7y5UrZl3oBIEaAm5Sm3l6kltpukBU/JQj11dKb7mWYoNAyk6xczakjksh/huTWeooeQIpfld8ioJX5H2CFhcmkLqJz75JS4DRgndNYhKaK6WjNp7Uz9Y/lJvjz2cymrJReE78xHIJ5fXH+FqZ1XIxoqyXfVqRoOxjKyQdQMAHyNh2wHDJLmMySF2v4J1afY0eO6k4J1UCtcllL19RBWo8oflZY7e3ujw1j63bv9ZQJCi1xGh/GQKp4D97omtBp7cc2jjajUPqZdVGWUMg5aMxm1m2laZLbx9fY6l5o97pKQoJyjy/YiRDBLRg6YP+TFE1WUYF7tokRdpT1hDw/li6XSNl2aiz/bxMqj1bpfzBcpJaS5sEpZYY7S9BQAuWMvFHJQYaOC3YaO1b61MrME0WkpRW6ueu1+wRq5/tt7UaaYlxbT+0/0z+ovSV5ioJCt5+OwK5G/RMIFqiNPpmo40bu/H5uplcGOvzmSh79iXb0T7TapOYDle6mbbyqbk+F8Ou8hSFBKXGK2h7CQKpm/PsIK+tKkUO+YwKNLkAF7uZzGZzCWdrUEJ4x+yg1Y3ylQYVXpdq/oZPvRBV72ixQ/zjKokfP9TmrEm5F4G3tzdVYRcwp/6sfUoWL6TIJD/G5oKOr+qyrf0BMBnURdEuY9NJnkCJbxx7sWwb7ccHZ8+3I6/d91M/3Ca6uaSwe8yYzqw6beMCCGxMQFZsbpKpn5mq5WQJ5ey9QtZWteG4x+PeMszkvdtYR+65ffEly0VW9DEdLMu8g2wxpr7Ouk+U8OUVTwkl2lyGgJ+8se3sCV2boIjMvUuMQ6pObjSU8QRqfWO279YSiPkUvlRL8Wt7LfET3lfg2z/ifWVIDQRMEMgF/dlBPhVcYgF9RNCpleEKQc+EM2aEyPlq6B+Z7pae1p7UzZ5vSyEMGlxj6/1j9yeeJCiDHIdu7RHIBf3ZEtcmByMSlFyA84HuuJ3N6Y7j1fqGZUbavNv95mmBeW7+7r6g4EuyLvJS7kEg9aVDN5Gn/2+gKXlSFnGBMXW66lzui3axzlxQfAgvyjgCNb7hEoCpX+yu1Vr7gmxPP66V6UrtU76yIq51ZWshC0QGCIwmoK3i3GR6fnlPzs8ufuzabU85cyuwmGysfHta4GtfOV8NbbLCd79KrdeE8sqxu3HqF3CmioCwjDH2dTvPV17xVLkCjXclkAv6K4J8LrD4ABNue9sg7D93vHPA681uRH85Xw3tM0KGXn1qCfCK+dZLJ2v9aIy9n+w8X3nF46xIuT6B1GNQ0d4FnekQzvwOyYhHtjk2IRh3czH9SiGUd7fjWr9Y4bulTLXXO+6m+RBfprQTyL2mHREz2qUu64EEpYwTrTYnkLsJrwjyucASQz4iOcixCeUYIUM4xp2Pa+xh3RZagrJivl3Zp3JJ7ba8neAUCFyagAviyXe0cn5VcaubpGwuqL7Oj5LzOEbJ/ig5VtnA0ri5x/WhfazbIpRXjsXnKX0J5OLIrq95TD9BkRWmlI+Pj+fWHz8P/v2Rx1fH8v7+fjw0te/lj+lz1GPEz5r3BuF1kX5Fn+Ox1NXoI9fKSstf19uG2iruOaD744L80lcWudWP5yKPxUeUmhW7jL+a1wgGVvrM+Woop7vNhVWmjmO+hf/0N5HEUIkjWpF4PCp+aGN2qe+bx7X3Jpmeg/n8OAVfq8fafTcJnv/ZWrtEbT14fWrl9+1FDytFdGnRR3SR649F6ryufns832Pf96ttQ5l6jFnbR4yDl3ekD4jufpzSrQVetXx3aS+xr9QO0tZy0Xwa/+lvtdw8tu4rGhEzT1BqVw5uEhcXN1GmrpD9E4HwqUKxwJGGs3U4itBbH9HFl+O+r3PO6ne7bGOruGPHvcc79l27L6zliZQ8RZPiAstzO+qPjJdaecXGHc3L+1tsbOt1Yq+WJ4A5Xz3qvzImHOXQ9rWYPtp/NHmuXp/zHZfEDI8n3Rk7Z1la3CQrXjE45U+3dYFjuJ6Sxco4LXLmrhVes0ouK8/JevZ8T/1KdOg53m59nZl/I3T0c2f0/DnrkzXXnZ2jJb56lOPsOCPsF+vzKKvfty5zTI9d6jxjbSv+tVt5rBLYByQN5oj6kUlKbXARWfxHJm1tYB490aX/nA1EZmknH9Hff3xdSR+xMXr6ZE4G0eHOxYLf5WwU8xHrdTIXaksth9r+Z7eP2Uh0pIwhkJvLO7JfkqDI5I05r1Yn4P3NLzStr5etGCBnJDnfu5QEFhnX65EaX/oq6U9YSbsRJTW+10F4lxZvG82+YX1pvyXtUrrIuCP8oUQuK21C9rnj3nIL/9yYO56vmR+eaQ0L636rzbszXDwftmkCOf+x7jMx7aYnKJrjxoJQrTOX9i3tepWSMc+ON7JvTf/UmK0Onur7aH9NtjP1uUl71jZnZLF2Tak9vG1a7X/UX+Z2zjZ+3B23Z/yqRs8z/R/5j97XfGv0uHfuX2Pu/arn/J3FeWqCkgPYCtJfX7LtATgXYOV8bZIVyiXX5/Tp5Xgp+/Qao0SfkEHLcY6d6HzXkrJ3jFsvViU+EBt/p7pan6pl0ssWtXKWto/ZyrrMpbpZbVfiQ1Zl1+SalqCUBsOzTlzav584YsyWkktOzuqhyZQbr0cCkRpDk+tMfc5WZ/rUrvH21ratfqCNu0O9xkSr76FTSRDVxt+l/szcz82JUPcethjZRyivHJ/hMlLGq/VdMrd2i3f/AQAA//+ezNE9AAAXwUlEQVTtXQGWHaeuHK/M8comXlnsleXfmvf0n0IkECBo+nZxzgSapiVVqVBz7zj2x98b2p9//vn3x8dH8wfrRlvUh8Sx0teM7Rr+P/74o8oh7o+2Fn+jdr3nali8Z3rn//rrrypf0ALWPLG18i37RPoMTUfyIf7u2o/yVNsPFhcna9bT1lP32s5cWVrRc3fLwTeQ9wKwtH379i1kfyaUHz9+fPz69SvkB4teBeHjlazweln48+fPj9cGlEuzn8FhGlSTLS4R2+fnp3oiNqzhGrVZ84xcIWdWy+Kvhkn8ZvkSe3fpWzrSODLyX8u39iVj7M9as/Z66xltb/Z5bQtj+P7+/ftXX96LXO/ORySm0TXevnvqXhvlceS5lo4y9vJIXMPPvESztL02bvNT7Cv4v1/ETcUR9QNfo/4Qozzv9bM4WiREYhg5JXt4Rrlq4cB9L2eRZyNrIlxF7LzbmggvWg8Z+LU9awwt9OjWstETp6W9nucz1wK3hcebW11jZrFZcYNvtvUMWLrW+bhbHj5WUhYthBkbbscm14n2xiv5FNuebz0va6O9frYc97w4ov6wzstZj43a2pb+7rZZa1h77pX5rV1n7M1a0cS9Xn1Zee2N08Lcw2HmWguPFZ/MZfpeYUvi1H1vflbE9QSbtb2GfNyt5i07oHgvHy1aGWeIt8cf/Pa2SBHJwBGJqyXCXiG2uOt9gUQwYI3nN/p8a12Lp7tt1hbeyP2IjjP3Zc3f6H6x8tpjy4rpSi1Y8UgOrD6S56vWeFhW1ZCrcJ7q19obWkNX6nyEs/43ddCLJ1RNloyDJpvLoj6xrqetstsTg17rvdiFT+mjRaFlb6WoJVbda6wz43fbrDNc4NmojpGL3j1ixVbzF9WmZVdrRcY99qy4MvBasUbmBEOkvzLOCBaLW+Bi28NAq+bdLRfLlBPZbFiTveG8DSLxjPhr2RTbeyT4Hy/is9ZHDxatAwp8jPAW4cPaUJHnImtq3OBelJ+IrzusafEh97N4EXtl33OYKHn19mK5rnZtaW6Vvmtx4F5k72n+roqzhUPu61hlnKUn8VHrwSd+4FN+EIeMwZ/81Ozc9R6wCe9efydsSw4oEZKEPIgpu8EmYoAoxQ96zI00bcMbw9fOVmLz4orwizXe83p+lL8aL6XvTB86dmu8O2c1HlbfA68WB+VcFieev4gea1xYuu/VTIkZ1702ajH23PN4smLE3OnNinsHt9CVpQ0rHj2H2GY1eVJOIno6Kd5WLEsU3yOUVoBX348kHILfsQk1F1GOo5tPb9raGH53Y9W4e8Y1HFfkrCf2zLVRDSO3Wc3iPqrFWgyW3R49IgbLRkZstbi9e9HcSMyenRPmPSwruYXtaC0UDq0esa+Mc1d+vBxozLtiyfCz5ICiyaiNMwtiBhmWjVr8+h6EsbNFhIj4ohxrLJEx/O/G3MtvC8fp8ffitdZn68TyYc2V3Gdw7WHpebF4NiwMO+ZKnmrXGRyuxLSbW89fjcPWvdM5buUvwknLxkn30w8oEYJEJKeLAYVPYm31u7H08Bwp4DOfQvAs4sFPxNeuDXBaznbh1n5aHOB+9BCr7UbG2ZrwNBqJRdZk2BBbs31PfUGewOfJzdLaSm15/sCr1CEZgztrvTV3Os81DURwCjc1O6fcSz+geAXgjkKIJFtw7U56T2yRDYf4BUtGDx3Ab8T3is0QwXNVbCvwWjYje/FOHFi67I3fsrHqJWrlRM8hdiseb253jdGxRsZW3L35ifixeEMOI/xgzbvtC80Z8Fl50HMRnrTNK8fpBxRNRGt8OlERIQvG3VgiQpTYogXY2vhiI6NfUay8zRPhZ2c8Xpyr5iO5vBN+D08vBkvH0f2RnSsPkxUj5k5uHpbsumjt614NgMdIbR+xe3WOLH5KPWXnZCXmdNWXZNSuTyeqFnt5bzeWiBAlxp4CLM+s7LHxV/MV4eeOBShSDICrlb+7YfdeKD068jTRsz8i/EfXtHKk718VYxSLp7no89F1mhOMZ3TsaUr7mLEfxZS5ztO4xtSzZzJjG7F16QFlJOCdz+iktsa7kx4Roo45yluvXe2jd7xy80dwrPQf5Tt7HTC18nBH3B6mHv48bq56+XuYrPnTc2bFnM1rmb9ZTiI1Arju1CKYsOYuLZX9CDlayKeTpGNtjXdjWcl1r+0WN637s4XG4j6CYYVfK5ZdcxHMWHO3Vr6YRE+9+cuyk8GfF4tgK/uT8+bprjc/LV7Lbzwy7Jc2S95xneGnhS3rvpcLjetkLZU88IBSMvLf60iiddIdM8umV8fXa19zMTLOLgKR+LN9Lkt20HCLd3Byx+bh6s2f9zLqtZPBIXx6uKz5DJ+rbHhYMvVW288z+avZ1XlYxV223QiezLxkx1/aSz2geELVidbjMpiTriOJ1lh2J31XfL051Zz0jmcKjaWdlv9sf1YMu+a8ly84wL3d+szCXdNfrw9PD1fooJavMk6sPbl5OcqM2fOhuRr1F8nFXfZPhKe7YEE+eUBxVB1JtN4cu5MOf9p/azwTXy8XrVhq92fiLFNZ84N7wPUOrZaf019uLf5r2FrPlvc9PVyhAy8Wa/6K+Eruatc7Yq7pQPyPaj1SS0dt13hbcS/CU2aNXYFB20w9oEQSLWJCf3LrxbI76VfEB/FHPm3oHPeOMwtBy/fphT+yP2oFKZPLSCwr1ng57M1dbb/02prFWYvFwrs7vh58HpbsmKN1pyd2Weth0Lm4y14C7zpuawy8d2mpp4RIojVhJ5PUi2V30nvjy+YaGyGyGXS+o+Os4tbyd5ei4+Wuxn8Wh57vHfOZ+Gr7ZbcOargsze7getSHh2XUnvfcygMKfFq867ndGvF4aM17+dBYdr+rWjHX7l96QDmdKJ3U1ng3logQdcw1EWTcQzz4iRYSHZs1zojJsqvn7lJ0LC5q+ce9zCa5lX6X1nWuynEvvhpfu3VQi6XEieuTmxUv8GW3aF0Z9RuxP2p753MRbe2MZ9ZXuvotwXpzs8Gvft6L25rfVbQFc0SIOk55blcPPhBjZOPrOGWcwWfLN+7fsdVyj3uZzfKV7cOK1/Ir2hjJW7Y9K+boXC0WwSj9CNZoHLPrPByzdq3nUQ+EE6+f4QrPenZlPqMmWdgy57ycCAb0d2rp0WoiWuPTEx4RrWDcjSUiRIltZuNmibknXsSdEXMrfxk+sviJ2qnxiHvZzfK3wk8Zt+VX9Dziv6aF3TqoYROM0o9gLblcdW1xujJey5/whH7Gd8s27N+hvQsO4Tqd9QhBIqoZQQmAlf3JWMCd8NjqIzzjgIV1+Fl52OqJezaOVv5w/06txh3urWgWh7N5icRZ0/QIVguH9hGJKWtNLY86JoxHsGbFWbPjYVgZL3RX8iPXs35b+oCfO7QWDty/U0tn3ROuCEn3p5NV2xAaB8a7sbSEqONrbV4L58qXUFQjszG0ONqds5nCYOVIctzK74xf8aH7GXuRZ1v6iNgo17S0MKu10l/tupZLzTPGO+OqxVzeK+OU63LdimvoAz/IKfjJ4Eji9/q71IqWzu+CQ3STfkCBWLwkW/MSyKm9FbM1tzvxLSHqGFvcWi+E1XgsnzpmjLFmpkW0OGN/17M1HLMctTCUOcH16mb5lLlRvK39kvGSi/JSy6fglH5nXNH4vb07mpuo31XrIvm4C7aWzu+CQ3K9pNq0SJLNh/7EDSjkoI9iwbqdLTMuq+DswNPCMBtDpPDszNmoL71f9Hh1sblCF5bPDMwtre2sQxFdCuadcUX06cW+WouR2EbXtDSHXJyWBw+r6Mbr75anxx1QkCD94yVa5r0NaQlAntnRW/6tuYggscZ6djWOFreR2GsxtuwDM9ac3LwX6464LV3M5qTFtaVDPTeKW9uwxrOH4Rau8r4VgzU3irf0l3Xt6THL/hV2LJ2XubgirhGfZdzl9Wl6amFcckABCSUx3vXOwmAJsUUQ7nubssS0K/k9/EbwWbwA22o8LRwZL8MyR+X1aowR/r01nu52xVxyheuMnHh4PR3qOLxnW/PahjXeWYcQq5fbMraVfLc4K+97+TkpxjLmyHXJeXl9F3ytegpcu2pHhPfImiUHFDiObsCdpJXCw3WkRRIPW7uKnFcoSnzRjeXZ24GnjFlfR+Ov5bClwwwfNf+j97yc7CownuZX8qVzb41nfFv2yrnRXI085+W3jGkG80hc3jNevDtqhBdTxryHS+chw88OG++ERfiKvaFldUfvFTideBnvELmVPMxFm8Ra63fgQLy1GPS9KDaLG7Gz+oUofqy+Jz8e1tYBZVfOvPiseS8fq3OhY9kdg+dP62JGD9qON97Jb7Q+nqDPWqxaM3cce1qQ+RnN7eYjsod2xzTr7xsMvJKxpP348ePj169fIduvTfDx2oyhtSOLvn379q/HeqADB/C02mocP3/+/HgJsRXG15rPz8/mOiyo2UROgGlVs/IivjK4rGGDn9X4BEu09+JFnPhB+/79+1c/85/fv3+bj8t+lb5c1LNnymdr1x5u/cyM75rOxMduLUTrY8Y+EIy9PXSA3Fh6QB2K1phevzvWtzR3N3zvhudLA69Nv7S9nOAAFPpZFchLaP/yj7neZtkpsb2KXK/ZrvWwX/osr3uxtXC9CmRXjNHFsFvGrq+jdmrrWj7g75TWyoPm5qrxCq4iOZrdV1G+VuDzbEZwI+5Z7J7/1nxNj701puVr9/0W91dxPsND691wx5wtr84tIejCsUIUnv9RIbREADyrhFArGMLjCIctuyM2I/zW/GZx6OVf+EJ/QqtxoWO9cnyFDgTvrB4i+xa+oJedLRLXKt5rOGt6nM1Fze+uey3ed8WR6Uf2itfv1nYGti3VuSb2kszszWgJcWaDRV54wDTjw0pslMMREUZsZ+MBxppfi4PRuVJj5fUIZ6OxWM9FNVXGvft6hQbARwTHbI6sOmD5za4/Vr71XDT3u+JCPDWuVmlAc7J6XKs70MSs1lbH79m39KznvOdOnt9yQAEBLVFoIrM2geUzw3a0qGQJPepvFJvFk86HjLPwtPQwisPbaLWCC2yZuLwYavPC7+l9dl5aOtB81PiL3IvuIfjc3aL7bwX/GmsrjtX+dSyrxi0dXF0LRnG3cF2h61Es+rmtu7G1AXRBwnhGLN5LSYOfGUexzG7qHX6iPpCTWTzgvLWZZvJiPdvyt+vTqRWbp9NyL5xwnZH7koMIrgy/LQ3oOLB2d4vqIIOLEluEmys4KePMuNZ5Lsd3xghdlHj09QrdZOSjZWPrAQXBtIjUpGKM9T3CwdrShlxnJ6nmS3yiR/Hp9Q3b0aLVw48liJGc9OIRvy1fo3bFvtW38gSer2gtLrSGThjP6qzkOIo/y2+Uw6v0EN3vGXsEnOKn5RP3se4dmqe3d8DoYRPNZ2jmCg1sP6AAZItMIVX3EBGew4/eMBjjB/O1zYb7Kxp86zhbY8GgcZQYaji0/ayNhVi03ehYsLR4lfy07MLeqtbidJXfmt0WH6fdr2EZuRfFN2LbeqalAR2P9fzqudFaEo1L6kyUh5X7MRpz1jqvxoGLd2itnCL3d2yXHFBAVO9m1MWjd7xjo3kboDfW6PrMjVWLvSV8HS/Wwhb6nudgY3WOWvFcsYE1d3cYZxe4COZMXURrTqbPEc5aWrV4wzOIu/zBvPxYz1lzWH/FfhjhKvIMOLFwXp3nSOyRNRFdR+ycuOayA4qQ4YnHElTv3O6NBqGsxAP8KzB5MesN7K3pzYm1fkcxbG1ijVW0ubq3uDh1DrrLbrDZwpvts+UP96/QQolz5X6rcXAC9pKLmWuPx3fC6WGUPN8Z6+UHFBFfi2QhO9KveIlLnJEeWCLFN4JF1qzEZHFvidpaJ/GN9MC0s9Vi3B0LcNfiOe2epYfZ3LX2yAqfLQ2v8DnKUyvWTI2srC+j+Gef8z6UnJTjWYx4/op9lBF3xMbSv+r+tYG6G/66XrSXiL76nv+8EvX1Vy+jP6W1/vrhWpy78JQxgvvaX2F91xy1/mrx14appSP9nvCYbniBwZoeRt3hr0/3/vkIaP/1ghk1XX3O00FL91WjC2+W+zPTFTDjn044qWZm4bP+eYNTczyD2cKp7e2ua9r37Pi4A4oGhAKm/80Q69+DwMa6ywaT+C1MgkPw7y4YKIKID357Xkb6JSv4gEHi1/9ujMwJxt094vNeiIgFL8SrY9zNydX+kBPsB60d6G91HkS38Atfd6ghEjNesjMNeHdwPBPj7LPWIfQdDyfQb62m3R3z0QeUWZHyeTKgGXj3zayxcvzeDMhhRR/s9BjocRCRdpdDmMQ701uHk9EPH8Iz4jnxEIv4agdWHlBmlMRnycBmBqziJSGgiK/6tYL4YE8GyMA6BqwX9szhRL/8T/xVSa2egeUTY+7JPr9B6WGLa2/PQOtblNFidntiCIAM3JyBzMMJqCjtnfayb9Wyu397ghzwgAIW2B7FQO1TB79FeZQUCPZNGCgPE9jHs3/ORteJE+tCiblM5WkHqjK+yDUPKBGWuOatGKh98jixEL0V+QRDBpIZKF/UWXtY/98xJ34boeMrKT0x3jLGyDUPKBGWuObtGKhtbv6a5+3STUBvysCqw0lp97QXfhlfmd53+PYEmHhAKTPL60cwoL++LQFnfQIr7fKaDJCBPAbKl3Tmvi1tn/ahpVa/TjtMzWScB5QZ9vjsbRmo/ZoHoN7lE8htE8TAyUCFgXL/Zh5O4Lb8hvWkA0qJvaTpnWoXDyhldnn9GAZqn0JOKkiPSQiBkoEAA9YLGt8ajDTYKps1d9JLv/x2R8f/Tt+eABcPKDq7HD+OgfKTkhCQ/YlM7LInA2RgjgFvz85ZrT990gGlhv+kOOuMxu7ygBLjiavelIHapxF+i/KmSSes2zJQ+9ZzFaiTPqzU6tW7fXuCfPKAskrVtHsbBryid1Jhug2ZDJQMLGKg9nJe5PLL7Ekv/id9e/JF/usrITYy8GgGXt+U4J8xNn9exenR3BA8GTiBAexDb4+unj+lBtQ4OCXGbK3wG5SvYxr/83QGvG9RwMtr0z2dHuInA5cyUNufqwM74Ve91h8MFtyvw0nXv0Avz92h5wHlDllijMsZeGoBWE4sHZCBBAauPKCc8AGl9uutEw5QCSk2TfCAYtLCyScy8NQi8MRcE/O9GHjyAeXJH554QLnXPmW0ixnwCiH/wOxi4mmeDJABkwHvD8Y+oSbxgGJKgpNPZeDJn1aemnPiJgOnMvD0b3V5QDlVmYzrMgZqh5R3/n3vZYTTMRkgA/9ioHY4eec/GKuJ4AFFs8ExGfgvA7XiwEMKZUIGyMBqBrxf7TzlcAJ+eUBZrTLavy0D3iHlCb/7vW3SGDgZeAMGvD8L96TDCdLIA8obiJkQ1jHgHVKeVijWMUzLZIAMaAZYc/7HBg8o/+OCIzJgMsCCYdLCSTJABpIZYK35J6E8oPyTD16RAZMBr3Dwz6OYdHGSDJCBTga8GvPkb2t5QOkUEZc/lwGvgPCQ8lxNEDkZyGDA+z8Hn/7n3XhAyVAXbTyGAeuQ8vQi8pjkEygZWMSA9X/sPPmbE6GZBxRhgj0ZCDJgHVL4LUqQPC4jA2TgHwxY9YSHk/9QxAPKP6TCCzIQYwBFBV/LSvv8/PzANylsZIAMkIEeBlBHfv/+/f/1BHUE9YSN/5sxNUAGyAAZIANkgAwcyAC/QTkwKQyJDJABMkAGyMDTGeAB5ekKIH4yQAbIABkgAwcywAPKgUlhSGSADJABMkAGns4ADyhPVwDxkwEyQAbIABk4kAEeUA5MCkMiA2SADJABMvB0BnhAeboCiJ8MkAEyQAbIwIEM8IByYFIYEhkgA2SADJCBpzPAA8rTFUD8ZIAMkAEyQAYOZIAHlAOTwpDIABkgA2SADDydAR5Qnq4A4icDZIAMkAEycCADPKAcmBSGRAbIABkgA2Tg6QzwgPJ0BRA/GSADZIAMkIEDGeAB5cCkMCQyQAbIABkgA09ngAeUpyuA+MkAGSADZIAMHMgADygHJoUhkQEyQAbIABl4OgM8oDxdAcRPBsgAGSADZOBABnhAOTApDIkMkAEyQAbIwNMZ4AHl6QogfjJABsgAGSADBzLAA8qBSWFIZIAMkAEyQAaezsD/AZBq5k6vGgqpAAAAAElFTkSuQmCC;" vertex="1" parent="1">
          <mxGeometry x="823.29" y="479.45" width="143.43" height="48.33" as="geometry" />
        </mxCell>
        <mxCell id="trG8RAwOMToN1kAprwP--60" value="" style="endArrow=none;html=1;rounded=0;" edge="1" parent="1">
          <mxGeometry width="50" height="50" relative="1" as="geometry">
            <mxPoint x="710" y="200.68" as="sourcePoint" />
            <mxPoint x="780" y="200.68" as="targetPoint" />
          </mxGeometry>
        </mxCell>
        <mxCell id="trG8RAwOMToN1kAprwP--61" value="&lt;font style=&quot;font-size: 30px;&quot;&gt;32 bit&amp;nbsp;&lt;/font&gt;&lt;div&gt;&lt;font style=&quot;font-size: 30px;&quot;&gt;Multiplier&lt;/font&gt;&lt;/div&gt;" style="rounded=0;whiteSpace=wrap;html=1;fillColor=#d5e8d4;strokeColor=#82b366;" vertex="1" parent="1">
          <mxGeometry x="1120" y="277.77" width="190" height="200" as="geometry" />
        </mxCell>
        <mxCell id="trG8RAwOMToN1kAprwP--62" value="A" style="text;html=1;align=left;verticalAlign=middle;whiteSpace=wrap;rounded=0;" vertex="1" parent="1">
          <mxGeometry x="1120" y="324.43999999999994" width="60" height="30" as="geometry" />
        </mxCell>
        <mxCell id="trG8RAwOMToN1kAprwP--63" value="B" style="text;html=1;align=left;verticalAlign=middle;whiteSpace=wrap;rounded=0;" vertex="1" parent="1">
          <mxGeometry x="1120" y="400" width="60" height="30" as="geometry" />
        </mxCell>
        <mxCell id="trG8RAwOMToN1kAprwP--64" value="" style="edgeStyle=elbowEdgeStyle;elbow=horizontal;endArrow=classic;html=1;curved=0;rounded=0;endSize=8;startSize=8;exitX=1;exitY=0.5;exitDx=0;exitDy=0;" edge="1" parent="1" source="trG8RAwOMToN1kAprwP--37" target="trG8RAwOMToN1kAprwP--62">
          <mxGeometry width="50" height="50" relative="1" as="geometry">
            <mxPoint x="1020" y="220" as="sourcePoint" />
            <mxPoint x="1110" y="190" as="targetPoint" />
          </mxGeometry>
        </mxCell>
        <mxCell id="trG8RAwOMToN1kAprwP--65" value="" style="edgeStyle=elbowEdgeStyle;elbow=horizontal;endArrow=classic;html=1;curved=0;rounded=0;endSize=8;startSize=8;exitX=1;exitY=0.5;exitDx=0;exitDy=0;entryX=0;entryY=0.5;entryDx=0;entryDy=0;" edge="1" parent="1" source="trG8RAwOMToN1kAprwP--51" target="trG8RAwOMToN1kAprwP--63">
          <mxGeometry width="50" height="50" relative="1" as="geometry">
            <mxPoint x="1020" y="460" as="sourcePoint" />
            <mxPoint x="1070" y="410" as="targetPoint" />
          </mxGeometry>
        </mxCell>
        <mxCell id="trG8RAwOMToN1kAprwP--66" value="Q" style="text;html=1;align=right;verticalAlign=middle;whiteSpace=wrap;rounded=0;" vertex="1" parent="1">
          <mxGeometry x="1250" y="350" width="60" height="30" as="geometry" />
        </mxCell>
        <mxCell id="trG8RAwOMToN1kAprwP--68" value="" style="endArrow=none;html=1;rounded=0;exitX=1;exitY=0.5;exitDx=0;exitDy=0;" edge="1" parent="1" source="trG8RAwOMToN1kAprwP--66">
          <mxGeometry width="50" height="50" relative="1" as="geometry">
            <mxPoint x="1360" y="380" as="sourcePoint" />
            <mxPoint x="1420" y="365" as="targetPoint" />
          </mxGeometry>
        </mxCell>
        <mxCell id="trG8RAwOMToN1kAprwP--69" value="seed_1" style="text;html=1;align=right;verticalAlign=middle;whiteSpace=wrap;rounded=0;fontSize=20;" vertex="1" parent="1">
          <mxGeometry x="70" y="208.34" width="110" height="30" as="geometry" />
        </mxCell>
        <mxCell id="trG8RAwOMToN1kAprwP--70" value="seed_2" style="text;html=1;align=right;verticalAlign=middle;whiteSpace=wrap;rounded=0;fontSize=20;" vertex="1" parent="1">
          <mxGeometry x="70" y="278.05" width="110" height="30" as="geometry" />
        </mxCell>
        <mxCell id="trG8RAwOMToN1kAprwP--71" value="rst" style="text;html=1;align=right;verticalAlign=middle;whiteSpace=wrap;rounded=0;fontSize=20;" vertex="1" parent="1">
          <mxGeometry x="70" y="339.99999999999994" width="110" height="30" as="geometry" />
        </mxCell>
        <mxCell id="trG8RAwOMToN1kAprwP--72" value="clk" style="text;html=1;align=right;verticalAlign=middle;whiteSpace=wrap;rounded=0;fontSize=20;" vertex="1" parent="1">
          <mxGeometry x="70" y="415.33" width="110" height="30" as="geometry" />
        </mxCell>
        <mxCell id="trG8RAwOMToN1kAprwP--73" value="" style="edgeStyle=elbowEdgeStyle;elbow=horizontal;endArrow=classic;html=1;curved=0;rounded=0;endSize=8;startSize=8;exitX=1;exitY=0.5;exitDx=0;exitDy=0;entryX=0;entryY=0.5;entryDx=0;entryDy=0;" edge="1" parent="1" source="trG8RAwOMToN1kAprwP--69" target="trG8RAwOMToN1kAprwP--26">
          <mxGeometry width="50" height="50" relative="1" as="geometry">
            <mxPoint x="190" y="250" as="sourcePoint" />
            <mxPoint x="240" y="200" as="targetPoint" />
          </mxGeometry>
        </mxCell>
        <mxCell id="trG8RAwOMToN1kAprwP--74" value="" style="edgeStyle=elbowEdgeStyle;elbow=horizontal;endArrow=classic;html=1;curved=0;rounded=0;endSize=8;startSize=8;entryX=0;entryY=0.5;entryDx=0;entryDy=0;exitX=1;exitY=0.5;exitDx=0;exitDy=0;" edge="1" parent="1" source="trG8RAwOMToN1kAprwP--70" target="trG8RAwOMToN1kAprwP--27">
          <mxGeometry width="50" height="50" relative="1" as="geometry">
            <mxPoint x="230" y="300" as="sourcePoint" />
            <mxPoint x="370" y="270" as="targetPoint" />
          </mxGeometry>
        </mxCell>
        <mxCell id="trG8RAwOMToN1kAprwP--76" value="" style="edgeStyle=segmentEdgeStyle;endArrow=none;html=1;curved=0;rounded=0;endSize=8;startSize=8;exitX=1;exitY=0.5;exitDx=0;exitDy=0;endFill=0;" edge="1" parent="1" source="trG8RAwOMToN1kAprwP--71" target="trG8RAwOMToN1kAprwP--26">
          <mxGeometry width="50" height="50" relative="1" as="geometry">
            <mxPoint x="170" y="380" as="sourcePoint" />
            <mxPoint x="220" y="330" as="targetPoint" />
          </mxGeometry>
        </mxCell>
        <mxCell id="trG8RAwOMToN1kAprwP--79" value="" style="endArrow=none;html=1;rounded=0;endFill=0;" edge="1" parent="1" target="trG8RAwOMToN1kAprwP--27">
          <mxGeometry width="50" height="50" relative="1" as="geometry">
            <mxPoint x="390" y="350" as="sourcePoint" />
            <mxPoint x="425" y="360" as="targetPoint" />
          </mxGeometry>
        </mxCell>
        <mxCell id="trG8RAwOMToN1kAprwP--80" value="" style="ellipse;whiteSpace=wrap;html=1;fillColor=#000000;" vertex="1" parent="1">
          <mxGeometry x="382.5" y="350" width="15" height="10" as="geometry" />
        </mxCell>
        <mxCell id="trG8RAwOMToN1kAprwP--81" value="" style="edgeStyle=elbowEdgeStyle;elbow=horizontal;endArrow=oval;html=1;curved=0;rounded=0;endSize=8;startSize=8;exitX=1;exitY=0.5;exitDx=0;exitDy=0;endFill=1;" edge="1" parent="1" source="trG8RAwOMToN1kAprwP--72">
          <mxGeometry width="50" height="50" relative="1" as="geometry">
            <mxPoint x="220" y="430" as="sourcePoint" />
            <mxPoint x="770" y="380" as="targetPoint" />
            <Array as="points">
              <mxPoint x="350" y="400" />
            </Array>
          </mxGeometry>
        </mxCell>
        <mxCell id="trG8RAwOMToN1kAprwP--84" value="" style="ellipse;whiteSpace=wrap;html=1;fillColor=#000000;" vertex="1" parent="1">
          <mxGeometry x="343" y="425.33" width="15" height="10" as="geometry" />
        </mxCell>
        <mxCell id="trG8RAwOMToN1kAprwP--85" value="" style="edgeStyle=segmentEdgeStyle;endArrow=classic;html=1;curved=0;rounded=0;endSize=8;startSize=8;" edge="1" parent="1">
          <mxGeometry width="50" height="50" relative="1" as="geometry">
            <mxPoint x="350" y="380" as="sourcePoint" />
            <mxPoint x="450" y="240" as="targetPoint" />
            <Array as="points">
              <mxPoint x="350" y="240" />
            </Array>
          </mxGeometry>
        </mxCell>
        <mxCell id="trG8RAwOMToN1kAprwP--86" value="" style="ellipse;whiteSpace=wrap;html=1;fillColor=#000000;" vertex="1" parent="1">
          <mxGeometry x="343" y="375" width="15" height="10" as="geometry" />
        </mxCell>
        <mxCell id="trG8RAwOMToN1kAprwP--89" value="" style="edgeStyle=segmentEdgeStyle;endArrow=classic;html=1;curved=0;rounded=0;endSize=8;startSize=8;" edge="1" parent="1" target="trG8RAwOMToN1kAprwP--34">
          <mxGeometry width="50" height="50" relative="1" as="geometry">
            <mxPoint x="770" y="380" as="sourcePoint" />
            <mxPoint x="820" y="330" as="targetPoint" />
            <Array as="points">
              <mxPoint x="770" y="320" />
            </Array>
          </mxGeometry>
        </mxCell>
        <mxCell id="trG8RAwOMToN1kAprwP--90" value="" style="edgeStyle=segmentEdgeStyle;endArrow=classic;html=1;curved=0;rounded=0;endSize=8;startSize=8;" edge="1" parent="1" target="trG8RAwOMToN1kAprwP--48">
          <mxGeometry width="50" height="50" relative="1" as="geometry">
            <mxPoint x="770" y="380" as="sourcePoint" />
            <mxPoint x="800" y="510" as="targetPoint" />
            <Array as="points">
              <mxPoint x="770" y="570" />
            </Array>
          </mxGeometry>
        </mxCell>
      </root>
    </mxGraphModel>
  </diagram>
</mxfile>
